<?xml version="1.0" encoding="UTF-8"?>
<svg id="Capa_1" data-name="Capa 1" xmlns="http://www.w3.org/2000/svg" viewBox="0 0 1338.7 312.48">
  <defs>
    <style>
      .cls-1 {
        fill: #e8f5e9;
      }
    </style>
  </defs>
  <path class="cls-1" d="M839.96,272.55h-14.39c-22.21-5.14-40.07-18.53-46.73-41.04-12.5-42.26,23.14-83.56,66.9-73.63,9.56,2.17,34.77,14.13,27.67,26.79-5.93,10.56-18.22-4.05-24.47-6.97-20.82-9.73-45.34,1.17-52.9,22.64-12.18,34.63,23.08,67.28,55.7,49,6.16-3.45,15.67-15.93,21.82-5.14,5.78,10.13-11.82,20.52-19.54,23.73-4.63,1.92-9.55,2.6-14.08,4.62Z"/>
  <path class="cls-1" d="M1182.36,272.55h-14.39c-22.14-5.13-40.21-18.6-46.73-41.04-13.56-46.77,31.28-90.54,76.8-70.1,7.66,3.44,25.71,14.48,16.94,24.35-7.1,7.99-15.96-4.12-22.38-7.39-35.81-18.27-70.98,23.39-50.72,57.44,10.22,17.17,32.54,23.48,50.4,14.55,6.35-3.18,12.42-12.79,19.55-9.69,10.21,4.44,3.9,14.36-2.17,19.4-8.02,6.65-17.6,9.46-27.31,12.49Z"/>
  <path class="cls-1" d="M395.91,225.04c-.83-6.97-5.86-9.92-12.55-7.71-9.12,3.02-1.6,24.22-6.14,29.35-2.61,2.95-12.77,6.59-16.77,7.21-33.82,5.25-56.66-30.29-40.49-59.69,10.7-19.46,36.46-26.32,55.14-13.58,2.73,1.86,6.01,6.48,9.04,7.26,7.03,1.83,12.67-2.49,11.74-9.75-.74-5.79-14.21-14.76-19.46-17.06-29.89-13.09-64.51,2.21-75.23,32.57-2.25,6.36-2.6,12.44-5.04,18.46v3.84c2.74,6.6,2.63,13.19,5.29,20.13,6.03,15.71,19.45,28.42,35.43,33.64,3.36,1.1,7.18.88,10.12,2.83h13.43c9.79-1.98,34.19-11.37,35.51-22.52.64-5.39.64-19.6,0-24.99Z"/>
  <path class="cls-1" d="M1338.7,222.66h-.96c.32-5.17.35-12.11,0-17.27h.96v17.27Z"/>
  <path class="cls-1" d="M654.85,264.39c-1.79,8.29-15.61,8.14-17.18-2.97,2.25-29.44-3.31-64.15-.09-92.97,1-8.99,7.11-12.82,15.05-7.84,20.67,25.27,40.55,51.54,62.64,75.48v-70.51c0-7.88,15.5-10.79,17.21.05l.08,96.86c-.45,7.29-8.8,9.14-14.36,5.68l-57.62-70.92-5.73-5.3v72.43Z"/>
  <path class="cls-1" d="M910.93,263.44c-1.73,8.7-15.59,9.5-17.2-1.02l-.08-95.89c1.24-10.47,15.1-10.53,17.08-1.69,1.38,6.15-2.2,39.14-.76,40.57l65.22.95v-41.73c0-.91,3.3-4.55,4.44-5.15,5.74-3.03,11.39.24,12.6,6.34-1.78,30.31,3.15,64.99.28,94.8-1.26,13.14-16.14,12.17-17.33,1.89-.65-5.57-.17-14.32-.02-20.21.07-2.55,2.87-19.63-.44-19.63h-63.78v40.77Z"/>
  <path class="cls-1" d="M1071.11,102.74v-25.42c0-1.91,5.75-1.9,5.75,0v34.54c0,1.45-4.2,2.14-5.33.53l-22.48-25.95v25.42c0,1.91-5.75,1.9-5.75,0v-33.58c0-2.71,3.46-3.24,5.34-1.5l22.47,25.96Z"/>
  <path class="cls-1" d="M690.34,77.32c.47-1.54,3.48-1.99,4.8-.97l21.57,26.4,1.45-26.87c1.39,0,3.47-.39,4.36.9.94,1.37.88,29.69.47,33.2s-1.57,4.16-4.85,2.84l-22.05-25.43v23.5c0,3.66-5.75,2.6-5.75.96v-34.54Z"/>
  <path class="cls-1" d="M623.2,77.32c.7-2.33,5.75-1.57,5.75,0v22.06c0,1.27,4.33,6.71,5.8,7.63,3.44,2.14,9.21,2.22,12.78.4,1.64-.84,6.36-6.61,6.36-8.03v-22.06c0-1.9,5.75-1.91,5.75,0v22.06c0,.43-2.48,5.72-3.03,6.56-7.12,11.02-22.54,11.45-30,.57-.69-1-3.42-6.49-3.42-7.13,0-4.57-.92-18.99,0-22.06Z"/>
  <path class="cls-1" d="M893.44,75.17c5.02-.64,19.46,2.09,17.42,8.75-1.33,4.34-7.21-2.4-10.21-3.02-23.63-4.9-24.8,31.32-.8,27.53,3.53-.56,8.7-6.61,10.64-3.8,3.23,4.67-7.07,9.06-10.66,9.54-27.07,3.61-31.25-35.82-6.38-38.99Z"/>
  <path class="cls-1" d="M596.34,80.68h-23.02v11.51h18.7c1.26,0,1.75,3.54,1.44,4.8h-20.14v14.87c0,1.91-5.75,1.9-5.75,0v-34.54c0-.1,1.34-1.44,1.44-1.44h25.9c1.26,0,1.75,3.54,1.44,4.8Z"/>
  <path class="cls-1" d="M945.46,113.3h-4.8v-35.98c0-1.81,4.8-1.81,4.8,0v35.98Z"/>
  <path class="cls-1" d="M1003.94,62.48c2.13,3.06-8.49,13.38-11.05,9.61-2.75-4.06,9.24-12.2,11.05-9.61Z"/>
  <path class="cls-1" d="M234.16,121.88c-10.89-.8-38.13,2.33-46.35-2.43-8.55-4.96.74-16.05,5.12-20.73,9.88-10.53,25.07-16.35,30.83-30.26,6.28-15.15-1.52-33.52-19.97-27.77-17.92,5.59-24.16,29.55-37.08,41.23-10.63,9.61-13.11-1.18-12.71-10.66.28-6.58.89-14.32,1.69-20.86,1.87-15.43,13.6-47.31-11.53-50.28-1.19-.14-3.73-.14-4.92,0-15.3,1.81-18.59,21.84-18.06,34.26.54,12.55,4.04,33.14.63,44.89-2.39,8.23-9.24-.31-12.08-3.91-10.66-13.52-13.72-31.78-22.49-46.4-6.73-11.22-15.29-19.62-29.19-13.06-12.9,6.09-9.65,21.06-4.16,31.25,6.41,11.9,13.9,23.15,21.48,34.28,7.28,10.68,12.14,22.08-6.85,20.79-17.83-1.21-46.68-16.77-62.9-6.31-9.4,6.06-5.8,24.29,1.82,30.91,15.89,13.82,43.38,5.37,62.31,11.9,21.17,7.3,36.03,35.9,28.38,57.11-5.74,15.91-18.09,29.95-24.09,46.43-12.65,34.77,5.57,64.22,41.69,69.44,43.83,6.34,73.13-25.73,60.1-68.73-7.8-25.73-41.25-55.18-11.78-79.64,15.4-12.78,30.71-10.32,48.48-5.04,7.02,2.09,16.58,6.85,23.66,6.25,22.91-1.91,23.3-40.79-2.03-42.66ZM137.16,280.76c-17.86,10.31-38.85-7.75-31.32-27.23,2.5-6.48,9.55-12.49,16.5-13.43,25.06-3.39,35.59,28.67,14.82,40.66Z"/>
  <path class="cls-1" d="M1337.74,222.66c.96-5.44.97-11.83,0-17.27-1.47-21.8-20.46-42.18-41.43-47.3-46-11.22-82.01,34.23-66.01,77.53,7.32,19.8,25.04,32.36,45.1,36.91h14.39c4.27-1.99,9-2.58,13.41-4.33,17.88-7.1,33.34-26.06,34.55-45.55ZM1278.77,254.31c-47.56-3.99-45.64-78.53,2.22-80.33,53.87-2.03,53.56,85.02-2.22,80.33Z"/>
  <path class="cls-1" d="M504.7,256.28c-2.35-3.56-21.13-21.84-21.47-23.68-.42-2.32,4.6-3.81,6.17-5.15,22.91-19.55,19.25-58.53-10.26-67.44-8.82-2.66-45-2.83-54.98-1.65-4.49.53-7.61,3.53-8.15,8.15-3.43,29.26,2.63,65.06,0,95.02,1.42,11.87,15.76,10.02,17.29,2.86,1.31-6.13,0-22.33,0-29.74,0-.69,1.16-1.04,1.96-1.04,8.81-.02,17.97.76,26.79,1.06,9.4,9.41,17.11,20.75,26.38,30.21,3.61,3.69,5.6,6.56,11.45,5.7,6.63-.97,8.07-9.21,4.83-14.31ZM481.19,211.57c-1.3,1.16-8.78,5.33-10.01,5.33h-37.89v-41.25h35.97c.38,0,6.41,1.99,7.21,2.38,11.97,5.77,14.63,24.7,4.72,33.53Z"/>
  <path class="cls-1" d="M1116.25,258.61l-48.18-95.75c-3.97-6.37-11.85-5.97-15.37.61-13.29,30.79-33.83,60.94-46.35,91.78-2.41,5.95-3.47,12.48,4.53,14.76,11.56,3.3,14.16-19.5,19.47-20.5l63.68,1.07c2.15,5.54,5.71,17.67,11.81,19.43,6.42,1.85,13.09-5.26,10.42-11.41ZM1037.54,232.26l22.55-45.1,23.49,45.1h-46.04Z"/>
  <path class="cls-1" d="M625.16,257.63l-47.2-93.8c-4.71-6.83-11.72-7.88-16.33-.35l-47.02,93.03c-1.8,4.49-1.05,10.67,3.83,12.91,13.04,5.97,15.2-18.83,20.83-19.89l63.63,1.12c3.2,6.33,5.96,20.81,15.54,19.58,5.92-.76,9.24-7.26,6.72-12.59ZM546.47,232.26l23.97-45.09,22.07,45.09h-46.04Z"/>
  <path class="cls-1" d="M991.24,75.16c-24.39,4.1-20,42.53,6.41,39.01,25.43-3.39,20.09-43.47-6.41-39.01ZM989.54,108.06c-12.32-3.66-11.46-24.71,1.7-27.15,24.54-4.55,22.16,34.23-1.7,27.15Z"/>
  <path class="cls-1" d="M781.39,78.34c-.93-.51-4.71-2.46-5.22-2.46h-20.14c-.32.49-1.44,1.18-1.44,1.44v34.54c0,.1,1.34,1.44,1.44,1.44h21.1c.35,0,5.46-2.89,6.17-3.42,10.57-7.93,9.7-25.14-1.92-31.54ZM778.62,106.15c-3.43,1.94-19.23,4.2-19.23.91,0-4.96-1-21.7,0-24.94,1.01-3.29,15.34-.95,18.6.59,9.48,4.49,9.74,18.28.64,23.45Z"/>
  <path class="cls-1" d="M852.65,107.8l-16.64-31.79c-3.97-1.19-5.07,2.19-6.76,4.99-1.96,3.24-15.2,28.27-15.19,29.95,0,1.16.54,1.81,1.55,2.27,5.08,1.62,5.02-5.69,6.28-6.48.95-.59,20.33-.55,22.39-.16,3.5.66,3.57,6.06,4.42,6.59,3.28,2.02,6.32-2.51,3.95-5.37ZM825.57,100.83l7.68-16.31c1.06-.8,8.47,14.5,8.62,16.31h-16.3Z"/>
</svg>