<?xml version="1.0" encoding="UTF-8"?>
<svg id="Capa_1" data-name="Capa 1" xmlns="http://www.w3.org/2000/svg" viewBox="0 0 1549.84 467.88">
  <defs>
    <style>
      .cls-1 {
        fill: #fff;
      }
    </style>
  </defs>
  <path class="cls-1" d="M481.8,264.15c2.18-.72,4.57-.7,6.75,0,.74.03,1.51-.06,2.25,0l3.75.75c10.6,1.81,32.23,10.9,35.98,21.73.56,1.71.56,3.53,0,5.25-1.31,3.78-2.94,5.58-6.75,6.75-1.46.61-3.02.48-4.5,0-5.69-1.4-9.64-7.38-15.5-10.36-26.33-13.39-58.34,4.27-60.2,33.59-.75,3.2-.73,6.54,0,9.74,1.81,28.75,32.63,46.54,58.85,34.48,3.09-1.42,8.94-4.37,9.4-7.84,1.19-9.03-4.33-25.59,6.71-28.89,1.99-.43,4.01-.52,6,0,3.02,1.15,5,3.73,6,6.75.9,10.13,1.04,20.61,0,30.73-3.53,10.68-26.95,21.29-37.48,22.48h-4.5c-2.96-.64-6.02-.65-8.99,0-1.22-.09-2.54.14-3.75,0-26.98-3.07-47.9-27.91-50.97-53.96l-.75-3.75c-.19-2.96-.19-6.78,0-9.74l.75-3.75c3.73-30.32,26.3-51.9,56.96-53.96Z"/>
  <path class="cls-1" d="M1369.21,264.15c2.43-.72,5.07-.72,7.5,0,12.33.85,31.85,8.55,39.37,18.72,4.65,6.3,2.48,13.44-4.89,15.76-1.46.61-3.02.49-4.5,0-5.62-1.52-8.88-6.83-14.49-9.87-45.07-24.43-83.96,38.53-46.98,70.96,17.93,15.73,37.9,12.25,55.47-1.13,1.2-.45,2.14-1.32,3-2.25.39-.22.7-.86,1.46-1.16.82-.32,1.61-.17,2.28-.34,1.24-.51,2.51-.58,3.75,0,7.03,2.34,9.61,9.16,5.25,15.37-6.34,9.05-25.19,17.88-35.98,19.11h-3.75c-2.96-.64-6.02-.65-8.99,0-1.46-.12-3.08.18-4.5,0-26.29-3.32-49.52-29.32-50.97-55.46-.76-4.71-.76-9.53,0-14.24,1.65-29.81,27.5-53.84,56.96-55.46Z"/>
  <path class="cls-1" d="M998.2,264.15c2.93-.75,6.06-.74,8.99,0,12.56.97,29.67,8.17,38.22,17.62,5.57,6.15,3.51,14.47-4.49,16.86-1.24.56-2.5.53-3.75,0-5.38-1.26-7.77-5.34-12.35-8.26-26.08-16.64-59.01-.72-63.35,29.25-.41,4.76-.41,9.48,0,14.24,4.21,29.07,35.59,45.56,61.68,30.58,5.15-2.96,8.45-8.29,14.02-9.59,1.24-.52,2.5-.56,3.75,0,7.85,2.45,9.28,8.95,5.25,15.74l-3,3c-8.97,7.53-20.33,14.23-32.23,15.74h-3.75c-3.21-.64-6.53-.65-9.74,0-1.46-.12-3.08.18-4.5,0-11.71-1.49-23.21-8.57-31.48-16.49-1.65-.76-3-2.08-3.75-3.75-9.67-10.87-14.99-22.61-15.74-37.47-.73-3.19-.72-6.54,0-9.74,1.53-30.44,25.61-55.66,56.21-57.71Z"/>
  <path class="cls-1" d="M1007.2,389.31h-9.74c2.25-1.25,7.34-1.27,9.74,0Z"/>
  <path class="cls-1" d="M488.54,389.31h-8.99c2-1.25,6.84-1.28,8.99,0Z"/>
  <path class="cls-1" d="M1376.7,389.31h-8.99c2-1.25,6.84-1.28,8.99,0Z"/>
  <path class="cls-1" d="M1493.62,389.31h-8.99c2-1.25,6.84-1.28,8.99,0Z"/>
  <path class="cls-1" d="M799.58,266.4c1.12-.68,2.6-.69,3.75,0,1.96.32,3.43,1.41,4.99,2.51,18.08,22.24,35.89,44.77,54.24,66.8,3.49,4.19,7.59,9.74,11.24,13.49.72.74.98,1.41,2.23,1.14v-78.32c0-2.38,5.02-5.33,7.5-5.62,1.13-.67,2.6-.69,3.75,0,3.52.55,5.83,3.62,7.14,6.72l.37,105.34c-.76,6.99-9.05,11.38-14.98,7.44-22.8-27.02-45.09-54.63-67.49-82.03l-.92.3c.38,25.16.19,50.3-.58,75.4-.34,1.42-.79,2.49-1.5,3.75-.39,1.13-1.14,1.83-2.25,2.25-1.31.73-2.33,1.08-3.75,1.5-1.24.56-2.5.53-3.75,0-4.67-1.09-6.55-2.82-7.51-7.85l.37-106.84c1.1-3.27,3.68-5.44,7.14-5.97Z"/>
  <path class="cls-1" d="M1076.15,266.4c1.13-.67,2.6-.69,3.75,0,4.23.66,6.36,4.46,7.5,8.24.58,1.61.58,3.1,0,4.5,0,3.49,0,7,0,10.49-.51,6.25-.76,12.75-.75,19.49.03,1.8-.39,6.31,0,7.49,6.88.44,13.88.69,20.99.75,5.73.04,11.5,0,17.24,0h31.48l.05-43.8c.8-3.87,3.52-6.57,7.45-7.17,1.37-.71,3.11-.72,4.5,0,3.07.61,5.69,3.92,6.75,6.75.7,35.25.7,71.9,0,107.17-1.2,3.64-3.15,5.5-6.75,6.75-1.49.4-2.99.33-4.5,0-6.92-1.7-7.15-4.72-7.5-11.24.23-5.78.48-11.53.75-17.24,0-3.49.03-7,0-10.49.22-.98.9-11.1.34-11.12-5.31-.21-10.56-.34-15.9-.44-1.81-.03-3.62-.21-5.43-.43-5.49-.01-11-.02-16.49,0l-31.36-.37c1,.28.72.52-.51.73.31,14.16.19,28.28-.36,42.35-1.19,4.47-3.12,6.87-7.5,8.24-1.24.55-2.5.53-3.75,0-5.67-1.33-6.43-2.83-7.5-8.24-.83-34.7-.83-69.43,0-104.18.93-4.71,2.02-7.61,7.5-8.24Z"/>
  <path class="cls-1" d="M1235.79,177.22c7.44,9.19,14.97,19.3,23.23,27.73l.81-.4c.15-8.62.38-17.23.69-25.83.46-1.26-.85-1.25,1.5-1.5,1.13-.66,2.62-.69,3.75,0,.08.03.18,1.26.75,1.5v37.47c-1.63,1.45-3.7,2.01-5.84,1.33-7.38-9.31-15.04-18.43-22.64-27.56l-.81.4c-.14,8.62-.37,17.23-.69,25.83-.14.36-.57,1.33-.75,1.5-1.23.64-2.48.49-3.75,0-1.75-1.12-1.37-1.38-1.54-3.33-.69-7.84-.95-27.02,0-34.55.15-1.22.09-2.23,1.54-2.59,1.13-.71,2.58-.56,3.75,0Z"/>
  <path class="cls-1" d="M853.55,177.22l23.62,28.48c1.69.29,1.05-.74,1.12-1.87.43-7.28-1.17-18.22,0-24.74.18-1.01.42-1.61,1.49-1.88,1.13-.69,2.62-.69,3.75,0,.13.03.41.65.75.75v38.22c-.52,1.49-3.58,2.38-4.89,1.56l-23.59-27.79-.93,1.05c.01,8.66-.18,17.31-.57,25.93-.08.13-.61.67-.75.75-1.18.57-2.55.57-3.75,0-.29-.16-.51-.51-.75-.75v-38.97c.15-.3.43-.68.75-.75,1.12-.71,2.58-.56,3.75,0Z"/>
  <path class="cls-1" d="M781.6,177.22c.09.03.57,1.14.75,1.5.3,7.74.55,15.48.75,23.23,3.4,15.3,23.89,13.29,26.04-1.32.98-6.67-.91-15.41.21-21.54.18-1.01.42-1.61,1.49-1.88,1.13-.68,2.62-.69,3.75,0,.05.01.63.6.75.75,1.06,8.39.56,17.02,0,25.48-2.09,7.57-7.35,13.07-14.99,14.99-2.73.46-5.51.37-8.24,0-7.1-1.37-13.44-6.2-15.23-13.63-1.03-4.29-1.13-20.41-.55-25.01.15-1.22.09-2.23,1.54-2.59,1.13-.67,2.61-.68,3.75,0Z"/>
  <path class="cls-1" d="M1067.91,176.47c2.67-.76,5.57-.79,8.24,0,2.66.35,9.7,3.87,11.24,6,.53,1.24.6,2.5,0,3.75-3.41,4.02-8.29-2.49-12.7-3.41-23.77-4.97-24.2,34.66.75,29.31,4.42-.95,8.43-7.55,11.95-3.42.6,1.25.54,2.48,0,3.75-1.78,2.45-8.22,5.3-11.24,6-2.98.45-6.01.4-8.99,0-9.98-1.98-15.08-8.17-16.49-17.99-.47-1.98-.61-4.01,0-6,1.38-9.55,7.03-16.89,17.24-17.99Z"/>
  <path class="cls-1" d="M746.37,177.22c.56,1.04,1.78,1.8,1.43,3.23-1.31,5.38-20.46,1.39-24.67,2.76-.65,2.92-.78,10.24.33,10.93,6.4-.27,12.78-.16,19.15.31,2.49,1.47,2.82,4.99.25,5.87-4.22,1.45-15.69-1.2-19.74.12-.31,4.94-.56,9.94-.75,14.99-1.28,3.63-4.73,4.27-5.97.35,1.04-11.23-1.45-25.09-.06-35.99.16-1.25.11-2.24,1.54-2.59,9.34-.67,19.13-.67,28.48,0Z"/>
  <path class="cls-1" d="M1124.12,177.22c.09.03.57,1.14.75,1.5,1,12.36,1.11,25.11,0,37.47-.14.36-.57,1.33-.75,1.5-1.23.64-2.48.49-3.75,0-1.75-1.12-1.37-1.38-1.54-3.33-.69-7.84-.95-27.02,0-34.55.15-1.22.09-2.23,1.54-2.59,1.13-.67,2.61-.68,3.75,0Z"/>
  <path class="cls-1" d="M1183.88,162.36c2.31-.48,5.01.31,4.6,3.07-.3,2.03-12.39,13.5-13.41,6.12-.36-2.62,6.44-8.69,8.81-9.19Z"/>
  <path class="cls-1" d="M1175.08,380.32v-107.17c.24.63,1.21,1.35.8,2.54v102.09c.44,1.17-.62,1.98-.8,2.54Z"/>
  <path class="cls-1" d="M1068.66,378.82c-.09-.45-1.21-1.51-.8-2.53,2.13-32.08-2.64-67.42,0-99.11.12-1.42.69-1.97.8-2.53v104.18Z"/>
  <path class="cls-1" d="M812.33,303.88c-1.24.78-.75,2.84-.76,4.11-.27,21.65,2.06,48.17.07,69.05-.14,1.49-.65,1.89-.8,2.54v-76.82c.47-1.08,1.27.85,1.5,1.12Z"/>
  <path class="cls-1" d="M1119.62,336.1c-10.48.03-21-.02-31.48,0-.95,12.88,1.27,27.53.06,40.19-.14,1.5-.61,1.8-.8,2.54v-43.47s32.23.75,32.23.75Z"/>
  <path class="cls-1" d="M612.21,266.4c-16.75-1.45-35.5,1.08-52.47,0h52.47Z"/>
  <path class="cls-1" d="M1124.87,216.19v-37.47c.57,1.13.66,1.06.8,2.54.71,7.6.84,25.69,0,33.14-.13,1.17-.61,1.32-.79,1.8Z"/>
  <path class="cls-1" d="M1136.11,336.1c7.24.02,14.5-.01,21.74,0-.44,3.79.95,8.51-.75,12-.03-3.74.02-7.51,0-11.25-.8-.8-18.38,1.17-20.99-.75Z"/>
  <path class="cls-1" d="M530.51,366.83v-30.73c.29.88.65.98.8,2.54.56,5.94.7,20.63,0,26.39-.14,1.16-.66,1.4-.79,1.8Z"/>
  <path class="cls-1" d="M723.14,183.21v10.5c.78.78,16.19-1.19,19.49.75h-20.24c.4-2.07-.86-10.72.75-11.24Z"/>
  <path class="cls-1" d="M854.3,216.94v-28.48s1.5,1.5,1.5,1.5c-2.65,6.16,1.33,21.95-1.5,26.98Z"/>
  <path class="cls-1" d="M746.37,177.22h-28.48c.78-1.24,2.84-.75,4.11-.76,6.74-.07,13.52-.08,20.26,0,1.27.02,3.33-.48,4.11.76Z"/>
  <path class="cls-1" d="M1260.53,178.71v27.73c-.9.04-1.07-1.07-1.5-1.5,2.5-7.59-1.11-19.12,1.5-26.23Z"/>
  <path class="cls-1" d="M1238.04,189.96c-2.53,7.44,1.16,19.35-1.5,26.23v-27.73c.9-.02,1.1,1.01,1.5,1.5Z"/>
  <path class="cls-1" d="M753.87,366.08l-27.73-.75c7.87.04,18.48-.9,25.93-.04.91.11,1.25-.16,1.81.79Z"/>
  <path class="cls-1" d="M1016.94,210.94h-25.48c.74-.76.74-.68,1.8-.79,4.82-.52,17.1-.55,21.88,0,.91.11,1.25-.17,1.81.79Z"/>
  <path class="cls-1" d="M815.32,203.45v-25.48c.62.74.68.7.79,1.8.54,5.08.46,19.14-.79,23.69Z"/>
  <path class="cls-1" d="M941.24,217.69c-.27.06-.73.66-1.8.79-3.45.4-16.41.53-19.56-.04-1.44-.26-1.91-.78-1.87-2.25,6.6,3.26,15.84.69,23.23,1.5Z"/>
  <path class="cls-1" d="M1284.51,366.08l-24.73-.75c6.98.04,16.33-.8,22.93-.04.91.11,1.25-.17,1.81.79Z"/>
  <path class="cls-1" d="M783.1,201.95c-1.64-7.38-.34-15.55-.75-23.23,2.33,4.62-.18,17.45.75,23.23Z"/>
  <path class="cls-1" d="M941.24,177.22c-2.85-.39-19.47-.55-21.74,0,.78-1.24,2.84-.75,4.11-.76,5.67-.06,12.21-.56,17.62.76Z"/>
  <path class="cls-1" d="M1107.63,317.37c-5.79-.04-13.72.7-19.15.03-.83-.1-1.47.32-1.83-.78,6.84.46,14.37-.97,20.99.75Z"/>
  <path class="cls-1" d="M1086.64,309.12c-.07-5.1-.08-10.26-.01-15.37.02-1.27-.48-3.33.76-4.11,0,5.11.07,10.25.01,15.37-.01,1.27.48,3.33-.76,4.11Z"/>
  <path class="cls-1" d="M1156.35,375.82c-.22-4.22-.06-8.85-.01-13.13.01-1.27-.48-3.33.76-4.11,0,5.56.63,11.93-.75,17.24Z"/>
  <path class="cls-1" d="M722.39,215.44c.41-4.39-.56-9.65-.02-13.9.1-.76,0-.84.77-1.09-.38,4.94.87,10.37-.75,14.99Z"/>
  <path class="cls-1" d="M1312.24,333.85c-1.26-4.08-1.25-10.22,0-14.24-.24,4.37-.24,9.87,0,14.24Z"/>
  <path class="cls-1" d="M961.48,333.85c-.86-5.94-.85-8.36,0-14.24v14.24Z"/>
  <path class="cls-1" d="M648.19,312.12v-9.74c.81,4.65.78,5.07,0,9.74Z"/>
  <path class="cls-1" d="M443.57,331.61c-1.27-2.41-1.25-7.49,0-9.74-.19,2.96-.19,6.78,0,9.74Z"/>
  <path class="cls-1" d="M941.99,331.61c-1.25-2.25-1.27-7.34,0-9.74-.15,3.06-.15,6.68,0,9.74Z"/>
  <path class="cls-1" d="M1428.42,331.61c-1.25-2.25-1.27-7.34,0-9.74-.14,3.09-.14,6.65,0,9.74Z"/>
  <path class="cls-1" d="M1076.15,218.44c-4.31,1-4.73.85-8.99,0h8.99Z"/>
  <path class="cls-1" d="M1182.58,218.44c-4.29,1.06-4.77.8-8.99,0h8.99Z"/>
  <path class="cls-1" d="M1007.2,264.15c-2.66-.21-6.31-.18-8.99,0,2-1.25,6.84-1.28,8.99,0Z"/>
  <path class="cls-1" d="M800.33,218.44c-4.12,1.03-4.21.78-8.24,0h8.24Z"/>
  <path class="cls-1" d="M1181.83,176.47c-2.01-.26-6.2-.23-8.24,0,1.9-1.28,6.49-1.25,8.24,0Z"/>
  <path class="cls-1" d="M1076.15,176.47c-2.01-.26-6.19-.22-8.24,0,1.9-1.28,6.49-1.25,8.24,0Z"/>
  <path class="cls-1" d="M1199.07,201.2v-7.49c.37,1.54.87,1.93.81,4.16-.05,1.9-.54,2.22-.81,3.34Z"/>
  <path class="cls-1" d="M1376.7,264.15c-2.3-.16-5.18-.13-7.5,0,1.52-1.24,5.84-1.28,7.5,0Z"/>
  <path class="cls-1" d="M1492.87,264.15c-2.3-.16-5.18-.13-7.5,0,1.52-1.24,5.84-1.28,7.5,0Z"/>
  <path class="cls-1" d="M961.48,372.83c-1.94-.2-3.56-1.83-3.75-3.75.85.96,2.73,2.77,3.75,3.75Z"/>
  <path class="cls-1" d="M488.54,264.15c-2.13-.09-4.64-.14-6.75,0,1.4-1.26,5.35-1.26,6.75,0Z"/>
  <path class="cls-1" d="M1050.67,200.45c-.11-.79-.91-1.5-.84-3.4.05-1.43.78-2.17.84-2.6v6Z"/>
  <path class="cls-1" d="M1220.8,365.33h-6c1.57-1.1,4.52-1.4,6,0Z"/>
  <path class="cls-1" d="M690.16,365.33h-6c1.57-1.1,4.52-1.4,6,0Z"/>
  <path class="cls-1" d="M524.52,329.36h-6c3.02-.9,2.82-1.21,6,0Z"/>
  <path class="cls-1" d="M1188.58,380.32c-.2-.72-.85-1.09-.85-2.62s.7-1.97.85-2.62v5.25Z"/>
  <path class="cls-1" d="M1043.17,373.58l3-3c-1.84,3.09-1.3,1.57-3,3Z"/>
  <path class="cls-1" d="M1191.57,213.94l3-3c-.32.48-.09,1.42-1.07,2.31-.65.59-1.63.48-1.93.69Z"/>
  <path class="cls-1" d="M530.51,291.88v-5.25c.29.84.85.99.85,2.62s-.56,1.78-.85,2.62Z"/>
  <path class="cls-1" d="M1168.34,387.07c-3.01,1.04-1.88.64-4.5,0h4.5Z"/>
  <path class="cls-1" d="M1168.34,266.4c-.88-.17-3.56-.14-4.5,0,.76-1.23,3.79-1.2,4.5,0Z"/>
  <path class="cls-1" d="M1087.39,279.14v-4.5c.38,1.27,1.89,3.16,0,4.5Z"/>
  <path class="cls-1" d="M523.77,298.63c-.4.12-.76.78-1.88.84-1.59.08-1.96-.68-2.62-.84h4.5Z"/>
  <path class="cls-1" d="M1411.18,298.63c-.41.13-.76.78-1.88.84-1.58.08-1.91-.65-2.62-.84h4.5Z"/>
  <path class="cls-1" d="M1403.68,356.34c-.57,1.3-1.52,2.2-3,2.25,1.23-.94,1.06-1.16,3-2.25Z"/>
  <path class="cls-1" d="M657.93,379.57c-.33-1.34-1.82-2.73,0-4.5v4.5Z"/>
  <path class="cls-1" d="M1251.53,266.4c-.96-.17-3.51-.15-4.5,0,.71-1.2,3.74-1.23,4.5,0Z"/>
  <path class="cls-1" d="M720.89,266.4c-.88-.17-3.56-.14-4.5,0,.71-1.2,3.74-1.23,4.5,0Z"/>
  <path class="cls-1" d="M853.55,217.69c-.59.33-.59.84-1.87.84s-1.29-.51-1.87-.84h3.75Z"/>
  <path class="cls-1" d="M987.71,217.69c-1.55,1.54-2.28.83-3.75,0h3.75Z"/>
  <path class="cls-1" d="M1024.44,217.69c-1.9,1.09-1.81,1.17-3.75,0h3.75Z"/>
  <path class="cls-1" d="M1235.79,217.69c-1.54,1.41-2.24.97-3.75,0h3.75Z"/>
  <path class="cls-1" d="M983.21,216.94c-.82-1.42-1.46-2.26,0-3.75v3.75Z"/>
  <path class="cls-1" d="M950.23,213.19l2.25-2.25c-.16.22.02,1.05-.38,1.52-.69.8-1.65.56-1.87.73Z"/>
  <path class="cls-1" d="M1087.39,212.44v-3.75c1.3,1.53,1.1,2.23,0,3.75Z"/>
  <path class="cls-1" d="M494.54,264.9c-1.2-.04-3.11.47-3.75-.75,1.81.16,2.54.54,3.75.75Z"/>
  <path class="cls-1" d="M1157.1,202.7c-.34-1.48-.63-1.78-.75-3.75,1.21.64.71,2.55.75,3.75Z"/>
  <path class="cls-1" d="M1124.12,217.69c-1.54,1.41-2.24.97-3.75,0h3.75Z"/>
  <path class="cls-1" d="M803.33,266.4c-.84-.14-2.89-.13-3.75,0,.49-1.18,3.25-1.18,3.75,0Z"/>
  <path class="cls-1" d="M887.28,266.4c-.92-.14-2.79-.11-3.75,0,.49-1.18,3.25-1.18,3.75,0Z"/>
  <path class="cls-1" d="M814.57,177.22c-.55-.13-3.21-.13-3.75,0,.49-1.18,3.25-1.18,3.75,0Z"/>
  <path class="cls-1" d="M1006.45,177.22c-1.23.09-2.52-.13-3.75,0,.49-1.18,3.25-1.18,3.75,0Z"/>
  <path class="cls-1" d="M424.83,335.35c-.08-.72-.64-1.98-.75-3.75,1.22.64.71,2.55.75,3.75Z"/>
  <path class="cls-1" d="M1429.17,338.35c-.19-1.18-.62-1.88-.75-3.75,1.21.64.71,2.55.75,3.75Z"/>
  <path class="cls-1" d="M853.55,177.22c-1.16.15-2.69-.23-3.75,0,.49-1.18,3.25-1.18,3.75,0Z"/>
  <path class="cls-1" d="M1428.42,318.86c.13-1.86.56-2.57.75-3.75-.04,1.2.47,3.11-.75,3.75Z"/>
  <path class="cls-1" d="M883.53,177.22c-.58-.13-3.2-.14-3.75,0,.49-1.18,3.25-1.18,3.75,0Z"/>
  <path class="cls-1" d="M1040.92,354.84h-3.75c.32-.08.76-.82,1.88-.83s1.48.71,1.87.83Z"/>
  <path class="cls-1" d="M1411.18,354.84h-3.75c.34-.08.77-.81,1.88-.83,1.21-.02,1.48.7,1.86.83Z"/>
  <path class="cls-1" d="M424.08,321.86c.11-1.78.66-2.99.75-3.75-.04,1.2.47,3.11-.75,3.75Z"/>
  <path class="cls-1" d="M1124.12,177.22c-.32-.12-3.29-.11-3.75,0,.49-1.18,3.25-1.18,3.75,0Z"/>
  <path class="cls-1" d="M1256.78,270.15l-2.25-2.25c.87.51,2.39,0,2.25,2.25Z"/>
  <path class="cls-1" d="M1235.79,177.22c-1.13.17-2.75-.25-3.75,0,.49-1.18,3.25-1.18,3.75,0Z"/>
  <path class="cls-1" d="M1265.77,177.22c-.33-.15-3.06-.07-3.75,0,.49-1.18,3.25-1.18,3.75,0Z"/>
  <path class="cls-1" d="M1087.39,186.21v-3.75c1.1,1.52,1.3,2.22,0,3.75Z"/>
  <path class="cls-1" d="M1156.35,195.95c.12-1.96.41-2.26.75-3.75-.04,1.2.47,3.11-.75,3.75Z"/>
  <path class="cls-1" d="M1040.92,298.63c-.37.11-.7.84-1.87.83s-1.56-.75-1.88-.83h3.75Z"/>
  <path class="cls-1" d="M1025.18,216.94v-3.75c.98,1.98,1.21,1.64,0,3.75Z"/>
  <path class="cls-1" d="M779.35,379.57v-3.75c1.73,1.52.46,2.52,0,3.75Z"/>
  <path class="cls-1" d="M807.08,385.57l2.25-2.25c-.16.29.02,1.04-.38,1.52-.69.81-1.48.51-1.87.73Z"/>
  <path class="cls-1" d="M781.6,177.22c-.32-.12-3.29-.11-3.75,0,.49-1.18,3.25-1.18,3.75,0Z"/>
  <path class="cls-1" d="M669.17,387.07c-.39.12-.71.84-1.87.83s-1.56-.75-1.88-.83h3.75Z"/>
  <path class="cls-1" d="M771.85,387.07c-.39.12-.71.84-1.87.83s-1.56-.75-1.88-.83h3.75Z"/>
  <path class="cls-1" d="M803.33,387.07c-.37.11-.7.84-1.87.83s-1.56-.76-1.88-.83h3.75Z"/>
  <path class="cls-1" d="M1079.9,387.07c-.39.12-.71.84-1.87.83s-1.56-.75-1.88-.83h3.75Z"/>
  <path class="cls-1" d="M1199.82,387.07c-2.87.9-1.51.45-3.75,0h3.75Z"/>
  <path class="cls-1" d="M1302.5,387.07c-.39.12-.71.84-1.87.83s-1.57-.76-1.88-.83h3.75Z"/>
  <path class="cls-1" d="M1079.9,266.4c-.92-.14-2.79-.11-3.75,0,.49-1.18,3.25-1.18,3.75,0Z"/>
  <path class="cls-1" d="M563.49,387.07c-.39.12-.71.84-1.87.83s-1.56-.75-1.88-.83h3.75Z"/>
  <path class="cls-1" d="M1545.16,302.18c-8.64-21.16-29.37-36.44-52.29-38.03-2.43-.72-5.07-.72-7.5,0-28.54,1.57-51.72,23.05-56.21,50.96l-.75,3.75c-.07.99.05,2,0,3-.71,3.2-.73,6.54,0,9.74.05.99-.07,2.01,0,3l.75,3.75c3.92,24.34,25.05,47.77,50.22,50.96,1.65.21,3.55-.15,5.25,0,2.97-.65,6.03-.64,8.99,0h3c15.2-3.06,28.1-9.45,38.2-21.38,8.06-9.52,12.06-19.83,15.01-31.83v-19.49c-2.07-4.6-2.76-9.74-4.67-14.44ZM1502.03,368.12c-35.66,10.93-64.67-23.94-51.9-57.89,10.43-27.73,46.68-35.9,67.96-15.08,22.56,22.07,14.58,63.58-16.06,72.97Z"/>
  <path class="cls-1" d="M352.55,182.61c-19.88-1.57-41.84,2.04-61.66-.93-30.98-4.64-4.74-31.94,7.05-42.1,12.47-10.73,26.33-17.15,34.91-32.12,16.48-28.75-3.7-62.09-36.44-42.21-18.65,11.32-27.65,36.49-41.98,52.57-4.69,5.26-15.31,16.23-21.01,6.35-4.17-7.22-1.89-19.39-1.42-27.44.53-9.07.94-17.98,2.3-27,3.23-21.44,17.14-60.94-14.09-68.62-31.83-7.83-39.39,27.39-38.36,51.23.86,20.01,3.78,38.12,2.21,58.59-.34,4.48-1.56,15.61-8.38,12.39-7.08-3.34-16.57-18.05-20.25-25.02-10.85-20.55-22.73-68.36-45.94-76.57-10.94-3.87-26.34.96-32.31,11.17-11.2,19.16,5.08,38.52,14.19,54.43,2.96,5.16,5.41,10.69,8.36,15.83,6.72,11.73,19.76,24.22,22.64,37.29.24,1.62.3,3.26,0,4.88-1.23,4.44-5.06,6.33-9.32,7.1-.68.32-1.42.47-2.22.44-2.06.19-4.99.1-7.1,0-.78,0-1.52-.14-2.22-.44-20.06-1.77-38.75-10.29-58.59-13.32-.78,0-1.52-.14-2.22-.44-.43-.04-.89,0-1.33,0l-3.11-.44c-1.03-.01-2.07,0-3.11,0-1.45-.39-2.99-.41-4.44,0-.88.03-1.78-.06-2.66,0-.84.31-1.73.46-2.66.44-13.81,1.96-22.17,6.3-23.08,21.31-.42,1.29-.4,2.7,0,3.99.01.59-.04,1.19,0,1.78l.44,2.22c.97,8.85,2.32,13.08,8.43,19.53l1.33,1.33c7.86,7.31,19.81,12.12,30.63,12.87l2.66.44c.3,0,.59,0,.89,0l3.11.44c.59,0,1.18,0,1.78,0l5.77.44c1.77,0,3.56,0,5.33,0,5.49.03,10.81.18,15.98.44,1.18,0,2.37,0,3.55,0l4,.44c.73.05,1.49-.06,2.22,0,.79-.01,1.53.13,2.22.44,35.69,4.24,56.93,31.71,61.26,66.14-.02.94.12,1.83.44,2.66.05.73,0,1.49,0,2.22.37.84.39,1.82,0,2.66-.04.73.07,1.5,0,2.22.02.79-.12,1.53-.44,2.22-1.54,9.86-7.12,20.45-11.91,29.15-12.44,22.58-28.77,44.31-32.04,70.72l-.44,2.22c-.03.44,0,.89,0,1.33l-.44,3.55c-.02,3.1-.03,6.22,0,9.32l.44,3.55c1.82,36.71,34.17,60.3,68.36,64.36l2.22.44c.58.04,1.19,0,1.78,0l2.66.44c.89.01,1.78,0,2.66,0,4.28.39,8.59.39,12.87,0,.89,0,1.78.02,2.66,0l2.66-.44c35.04-2.82,62.26-29.09,66.58-63.92-.02-.93.13-1.82.44-2.66.03-.44-.02-.89,0-1.33.45-3.38.44-6.82,0-10.21-.03-.59.04-1.19,0-1.78l-.44-2.22c-1.83-17.66-8.39-34.55-16.79-50.01-8.14-14.98-21.34-30.74-22.27-48.53l-.44-3.11c-.02-2.21-.02-4.45,0-6.66l.44-3.11c.59-9.4,5.28-16.96,11.54-23.53.46-.98,1.24-1.76,2.22-2.22,9.59-9.08,20.86-15.27,34.18-16.87,1.21.01,2.4-.13,3.55-.44,2.47-.12,5.06-.02,7.55,0l4,.44c.44.04.9-.05,1.33,0,.79-.02,1.53.12,2.22.44,11.21,1.7,23.87,5.93,34.72,9.45,5.97,1.93,10.71,4.79,17.22,5.2,2.49.43,5.06.4,7.55,0,5.25-.75,10.5-2.91,14.65-6.21l1.33-1.33c4.6-5.25,6.81-10.87,7.99-17.75l.44-2.22c.02-.29-.02-.59,0-.89.92-17.05-8.54-33.64-26.84-35.08ZM217.6,408.56c-12.67,21.89-45.16,21.16-57.12-1.04-11.37-21.11,2.82-46.85,26.62-48.55,26.4-1.88,43.77,26.68,30.5,49.59Z"/>
  <path class="cls-1" d="M648.6,372.79l-24.4-27.68c13.94-5.45,21.6-18.68,23.98-32.99.36-3.23.37-6.52,0-9.74-3.25-18.58-16.33-34.27-35.98-35.97-17.48-.24-34.97-.24-52.47,0-3.5.65-6.01,2.6-7.14,5.97l-.37,106.84c.96,5.04,2.84,6.76,7.51,7.85,1.25.53,2.51.55,3.75,0,2.39-.75,7.5-3.7,7.5-6.37v-32.23c0-1.89,4.41-.37,5.59-.34,8.66.23,17.32-.57,25.88,1.1l32.96,36.74c9.14,6.44,18.91-4.3,13.19-13.18ZM617.97,327.24c-.7.35-5.09,2.11-5.38,2.11h-41.6v-44.97c3.21-.6,6.36.68,9.34.78,10.72.36,29.36-2.16,38.28,2.95,14.82,8.49,14.72,31.44-.63,39.13Z"/>
  <path class="cls-1" d="M779.35,375.82l-51.33-102.69c-1.4-2.85-3.86-6.08-7.13-6.73-1.38-.72-3.11-.71-4.5,0-1.65.25-3.07,1.04-4.47,1.91-18.93,34.94-36.71,71.03-53.99,106.77-.55,1.42-.55,2.92,0,4.5,1.23,5.01,2.43,6.31,7.49,7.49,1.25.53,2.51.55,3.75,0,2.67-.83,3.83-1.45,5.57-3.8,2.57-3.46,7.04-16.27,9.42-17.94,1.96-.55,4.05-.69,6,0,11.98,0,23.99-.06,35.98,0,9.36-.3,18.6-.05,27.73.75,4.16,7.19,5.09,18.84,14.24,20.99,1.25.53,2.51.55,3.75,0,4.03-1.26,6.01-3.5,7.49-7.49.55-1.34.55-2.58,0-3.75ZM693.91,346.6l24.37-49.47,25.1,49.47h-49.47Z"/>
  <path class="cls-1" d="M1256.78,270.15c-.34-1.04-1.09-1.79-2.25-2.25-.67-.39-2.42-1.4-3-1.5-1.38-.71-3.11-.71-4.5,0-4.23.64-5.98,3.31-7.9,6.71-17.94,31.79-31.94,67.26-49.98,99.2-.56.85-.38,1.91-.58,2.76-.55,1.73-.55,3.52,0,5.25,1.39,5.17,2.46,5.73,7.49,6.75,1.26.27,2.5.3,3.75,0,2.67-.83,3.83-1.46,5.57-3.8,2.57-3.46,7.04-16.27,9.42-17.94,1.96-.55,4.05-.69,6,0,12.98,0,25.99-.08,38.97,0,8.36-.27,16.6-.02,24.73.75,2.8,4.85,4.86,13.82,8.35,18.26,1.66,2.11,3.59,2.21,5.9,2.72,1.25.53,2.51.55,3.75,0,4.7-1.47,6.87-4.45,7.51-9.37-15.9-36.59-35.84-71.57-53.23-107.55ZM1224.55,346.6l23.99-49.46,25.47,49.46h-49.47Z"/>
  <path class="cls-1" d="M956.47,190.84c-1.86-5.93-9.02-12.79-15.23-13.63-7.16-.77-14.68-1.08-21.74,0-1.43.35-1.38,1.34-1.54,2.59-1.41,11.03,1.13,25.03.04,36.39l.37.72c7.31,1.79,14.93,2.05,22.87.78,3.91-.9,5.92-2.07,8.99-4.5,1.11-.42,1.87-1.12,2.25-2.25,4.52-6.35,6.42-12.32,3.99-20.1ZM940.87,211.69h-16.86v-28.48h16.86c5.16,0,10.7,9.05,10.78,13.94.09,5.12-5.38,14.54-10.78,14.54Z"/>
  <path class="cls-1" d="M1199.07,193.7c-1.94-8.19-8.49-16.13-17.24-17.24-2.68-.79-5.58-.76-8.24,0-8.64.97-14.62,7.61-16.49,15.74l-.75,3.75c-.06.96-.06,2.04,0,3l.75,3.75c2.04,8.9,7.58,14.04,16.49,15.74,2.98.38,6.02.48,8.99,0,3.45-.86,6.15-2.47,8.99-4.5,1.43-.59,2.35-1.63,3-3,2.13-3.21,3.6-5.94,4.5-9.74.57-2.47.49-5.02,0-7.49ZM1170.83,211.07c-12.35-5.59-10.09-26.12,3.31-28.43,6.33-1.09,11.93.25,15.93,5.44,9.83,12.75-3.9,29.92-19.24,22.99Z"/>
  <path class="cls-1" d="M1025.18,213.19c-5.97-12.08-13.28-23.61-18.74-35.97-1.15-.58-2.62-.67-3.75,0-.57.06-1.23-.32-1.56.46l-17.93,35.51c-.65,1.23-.44,2.5,0,3.75.13.23.52.62.75.75,1.28.45,2.52.68,3.75,0,1.26-1.25,2.68-5.65,3.75-6.75,8.29-.93,17.24-.94,25.48,0,1.2,2.07,1.19,5.2,3.75,6.75,1.29.52,2.47.5,3.75,0,.14-.08.67-.61.75-.75.52-1.29.46-2.47,0-3.75ZM995.2,204.2c-.66-.58,6.99-14.21,7.88-15.76.47-.81-.08-1.82,1.48-1.48l8.63,17.24h-17.99Z"/>
</svg>