<?xml version="1.0" encoding="UTF-8"?>
<svg id="Capa_1" data-name="Capa 1" xmlns="http://www.w3.org/2000/svg" viewBox="0 0 2131.2 568.19">
  <defs>
    <style>
      .cls-1 {
        fill: #fefefe;
      }
    </style>
  </defs>
  <path class="cls-1" d="M1721.39,126.03l51.23-.09c3.3,1.08,2.71,15.63.89,16.9-3.6,2.51-25.25-.58-30.91-.76-5.99-.2-21.82,2.29-25.24-1.23-3.88-4-2.23-13.79,4.03-14.82Z"/>
  <path class="cls-1" d="M356.77,125.76h52.31c5.77,0,7.55,16.37,2.52,16.37h-54.2c-3.53,0-1.35-13.72-.63-16.37Z"/>
  <path class="cls-1" d="M80.76,294.51c-2.1,6.39,2.96,13.6-6.28,15.74-4.07.94-30.27.6-31.69-1.37-2-2.79-2.43-14,2.29-15.39,3.38-.99,34.29-.42,35.68,1.01Z"/>
  <path class="cls-1" d="M2031.98,309.44c-1.84-1.14-2.48-13.19.76-14.94,3.58-1.94,29.32-2.11,32.38.09,3.58,2.58,3.6,13.61-.08,14.85-2.61.88-31.65.87-33.05,0Z"/>
  <path class="cls-1" d="M1987.9,476.87c-1.96-11.2-3.82-18.66,10.5-17.47,8.18.68,9.19,6.17,8.26,13.36-.96,7.42-13.18,6.39-18.76,4.11Z"/>
  <path class="cls-1" d="M1780.52,146.07c18.77-6.41,24.38,18.91,6.13,18.83-13.76-.06-9.54-17.67-6.13-18.83Z"/>
  <path class="cls-1" d="M125,267.92c-1.33-1.56-2.21-16.5,5.47-17.55,9.46-1.3,13.91,2.07,13.24,11.96-.63,9.4-16.67,7.99-18.71,5.59Z"/>
  <path class="cls-1" d="M80.6,356.34c.42,7.47,1.48,16.6-8.02,17.58-7.35.76-10.71-.79-10.85-8.27-.26-13.61,8.04-11.45,18.87-9.31Z"/>
  <path class="cls-1" d="M36.41,314.87c2.39,1.53,1.74,13.7-.41,16.14-2.01,2.28-12.62,2.43-14.31,1.08-1.79-1.43-1.73-15.95-.04-17.29.87-.69,13.37-.82,14.76.07Z"/>
  <path class="cls-1" d="M83.27,352.43v-17.63l16.47.58c3.33,14.87-1.38,19.01-16.47,17.05Z"/>
  <path class="cls-1" d="M340.03,146.18c10.92-2.47,13.01,3.41,11.76,13.02-.96,7.37-15.26,5.44-17.08,1.84-2.44-4.84-.6-13.52,5.32-14.86Z"/>
  <path class="cls-1" d="M63.25,204.95c-.97-1.22-.94-14.25,1.03-15.69,1.35-.99,12.63-.98,14.02.01,2.71,1.94,2.2,12.75-.04,15.22s-13.73,2.06-15,.45Z"/>
  <path class="cls-1" d="M1987.87,288.02c-2.82-4.52.16-16.03,7.95-16.25,9.32-.26,11.21,4.76,9.52,13.3-1.02,5.16-15.99,5.33-17.48,2.95Z"/>
  <path class="cls-1" d="M2046.94,356.2c-1.26,6.8,4.01,18.02-5.61,17.67-10.26-.37-11.74-2.05-10.78-12.02.97-9.99,8.39-4.31,16.39-5.66Z"/>
  <path class="cls-1" d="M2076.87,272.06c7.99-1.52,13.14,2.24,12.81,10.38s-6.33,8.27-13.1,6.99c-6.46-1.23-6.95-15.99.28-17.37Z"/>
  <path class="cls-1" d="M2066.83,349.63c-1.28,1.79-11.66,2.26-13.64.95-3.68-2.43-1.16-10.85-2.42-14.45,5.19-1.72,11.03-2,16.43-.75,1.75,1.07.65,12.82-.37,14.25Z"/>
  <path class="cls-1" d="M137.73,147.45c1.75-.99,11.34-.69,13,.95,2.72,2.69,2.67,12.58-.65,14.53-1.68.99-8.67,1.03-10.75.63-5.6-1.08-5.38-13.97-1.6-16.1Z"/>
  <path class="cls-1" d="M2098.25,189.01c10.28-2.44,13.02,2.07,11.75,11.74-.65,4.9-6.08,5.55-10.83,5.41-7.93-.24-8.33-15.4-.92-17.15Z"/>
  <path class="cls-1" d="M1967.66,148.56c1.18-1.38,12.11-2.11,14.48-.25,2.59,2.03,2.59,10.97.63,13.46-1.83,2.33-12.05,2.62-14.07,1.22-1.67-1.16-1.64-13.73-1.04-14.43Z"/>
  <path class="cls-1" d="M126.42,475.54c-2.24-2.25-2.43-10.19.24-12.39,2.82-2.33,12.99-3.69,15.23.08,1.49,2.51.4,11.8-1.85,13.28-2.1,1.38-11.76.88-13.61-.97Z"/>
  <path class="cls-1" d="M2046.94,205.1l-15.06-.08c-1.71-10.9-2.98-18.08,10.71-16.35,7.74.98,3.23,10.36,4.35,16.43Z"/>
  <path class="cls-1" d="M98.21,168.75c5.22,15.07-1.71,16.08-14.95,14.94-.78-15.08-.6-16.77,14.95-14.94Z"/>
  <path class="cls-1" d="M26.2,189.01c9.8-2.17,11.62,2.93,10.49,11.75-.73,5.68-5.57,5.06-10.83,4.4-7-.88-6.44-14.64.35-16.14Z"/>
  <path class="cls-1" d="M2067.1,183.69l-15.04-.1c.86-7.61-4.63-14.13,5.56-15.02,13.45-1.18,8.82,4.58,9.48,15.11Z"/>
  <path class="cls-1" d="M2121.77,397.91c-26.41-3.28-58.6,2.18-85.6-.1-19.16-1.62-3.55-15.82-13.47-20.54-2.81-1.34-25.5-1.59-29.3-.88-3.53.66-5.34,3.52-5.77,6.83-.81,6.2,1.81,29.83-1.16,32.84-.98.99-3.11,1.55-4.53,1.77-7.56,1.17-48.19,1.29-55.09-.2-9.87-2.13-.08-15.69-8.1-19.61-8.55-2.23-54.09.3-57.85-2.65-3.44-2.71-3.07-20.79,4.18-21.25,28.8-2.67,61.87,2.79,90.11-.65,14.29-1.74,9.09-4.43,9.82-17.26-4.59.79-8.84-1.1-13.19-1.3-6.83-.31-24.73,2.99-28.26-3.25-2.3-4.07-2.31-33.42,0-37.48,2.64-4.65,17.67-4.95,20.99-1.75,3.35,3.23.03,14.22,2.17,18.6,2.13,4.34,14.72.76,19.55,2.51-.24,2.79.32,16.71,2.06,17.71,4.38,2.52,49.69,1.64,55.03-.32,6.03-2.21,2.53-16.13.24-16.13h-36.55c-.89,0-1.7-2.1-1.89-3.15-1.88-10.29,1.66-25.69-1.17-36.31-9.23-6.69-36.47,4.4-40.33-7.86-6.56-20.81,5.75-17.24,20.8-20.6,1.54-2.17-3.76-17.53,3.66-18.99,3.31-.65,36.65-.28,38.47.63,6.18,3.06,1.49,17.94,5.83,19.36,2.01.66,28.51.72,31.34.18,5.72-1.09,2.27-11.55,3.16-16.38-4.9-.63-14.24,1.47-18.2-1.34-5.04-3.58-1.34-16.04-5.01-18.92-3.39-2.67-15.17.38-17.81-3.61-3.25-4.91,2.52-33.89-2.39-37.98-2.56-2.14-13.4-1.13-15.21,2.67-6.11,12.77,10.98,40.4-14.97,37.63-15.19-1.62-6.48-13.2-9.77-18.56-2.4-3.91-19.31,3.33-21.18-8.44-4.48-28.27,13.36-15.25,20.17-19.99,1.69-1.18,1.58-12.76,1.11-13.24-1.44-1.47-16.5-.88-19.68-2.11l-99.09.77c-3.93,3.16-3.54,8.72-1.92,13,1.78,4.69,19.38,1.82,24.28,3.45,7.65,1.54,31.51-4.7,36.07,1.73,3.04,4.28-.59,13.18,2.6,18.18,6.65.73,18.65-1.25,19.87,7.17,1.98,13.69-.9,19.9-15.66,18.21-13.98-1.59-6.27-17.54-12.82-19.93-14.1-5.14-40.44,1.26-55.84-2.13-6.92-3.8-.53-17.32-7.18-19.27l-73.84-.52c-9.17-2.02-5.65-12.29-7.38-17.81-.47-1.49-1.5-2-2.97-2.07l-100.22-1.87c-1.56-.92-4.23-8.23-4.72-10.39-7.43-32.28-10.46-65.9-19.31-97.94-3.23-9.98,23.21-23.5,24.07-26.69,1.42-5.24-2.12-28.44-7.47-30.04l-150.73-.56c-7.8,1.34,1.65,23.22-11.9,14.41-4.32-2.81-8.79-9.72-14.74-12.96-8.61-4.68-11.86-1.45-19.92-1.38-228.92,2.13-457.96-1.82-686.89.06-5.27.14-5.5,4.27-6.44,8.63-1.21,5.64-2.79,16.25-1.28,21.59,1.51,5.33,21.46,13.07,20.57,21.75-8.29,13.96-15.82,28.44-24.37,42.24-2.02,3.26-4.95,5.7-6.64,8.47-1.59,2.59-2.66,8.87-4.58,10.53-1.34,1.17-4.96,1.95-5.67,1.25-.75-.72,1.91-13.13-3.36-14.91-2.52-.85-23.92-.59-27.23.08-2.3.47-11.25,6.23-13.48,7.94-6.53,5.01-12.73,10.64-19.61,15.67-8.1,5.92-24.84,20.01-34.06,20.22-18.8.44-14.97-10.03-13.09-24.52,1.77-13.67,6.79-28.12,8.61-41.77.87-6.58-1.56-18,3.24-23.21,6.59-7.16,28.37-15.19,32.71-22.72,2.35-4.08,6.9-29.7,1.37-31.38h-176.45c-4.67,0-8.84,23.97-7.96,28.04,1.63,7.48,24.67,16.04,23.69,29.19-.15,2.06-1.93,3.66-2.2,5.41-4.56,29.32-10.02,63.88-17.03,92.53-4.22,17.26-10.87,11.23-24.17,11-29.55-.51-58.88,0-88.28,1.42-3.69.18-13.67-2.87-16.45,1.07-5.05,7.15,8.85,17.41-13.74,19.02-7.09.5-45.27.92-49.55-.89-4.98-2.11-3.37-15.52-7.41-19.37l-116.4.68c-4.18,2.03-2.07,10.47-2.51,14.49h37.18c1.43,0,5.5,7.52,5.62,9.51.13,2.27-1.26,4.81-1.27,7.44-.06,12.82,5.1,29.25-12.05,29.5-17.66.26-8.84-15.13-13.61-18.87-3.35-2.63-13.63.15-16.84-2.69-3.47-3.08-1.84-17.8-4-19.31-7.17-.35-54.33-1.9-56.66.84-1.01,1.19-1.09,12.3,2.68,14.05,7.52,3.49,32.03-2.07,36.33,2.74,5.76,6.44-.23,36.58,3.63,39.19.77.52,10.05,1.72,12,1.86,15.71,1.15,31.14-6.9,28.43,15.72-1.76,14.71-17.06,4.72-20.87,10.62-1.66,2.57.01,14.33-3.08,17.07-3.02,2.67-36.78,2.85-39.81.71-5.16-3.64-1.33-17.1-6.38-18.81-1.91-.65-28.49-.7-31.34-.17-5.09.94-3.69,14.62-1.97,15.82,3.83,2.67,16.39-2.87,19.59,4.36,4.09,9.25-6.43,15.77,10.26,17.46,2.63.27,7.18-2.54,9.41.99,2.62,4.13-.26,18.64,2.59,20.39.59.36,13.16,1.31,13.73.92,6.61-4.58-4.59-22.84,12.42-23.07,21.72-.28,9.83,17.06,15.58,22.02,3.33,2.86,18.05.34,19.66,3.01.39.65,1.07,13.78.77,15.08-1.25,5.34-9.29,6.19-13.8,6.23-19.12.15-39.06-1.66-57.98-1.45-10.62.12-14.49,4.97-12.04,15.64,1.8,7.84,51.56-1.55,59.27,4,3.36,2.41,3.64,17.92.66,20.77-4.22,4.04-38.59,2.51-46.69,2.56-33.58.22-76.88-3.35-109.6-.05-1.9.19-6.65,1.01-7.61,2.47-1.34,2.03-.49,12.16.96,13.61,3.89,3.88,49.46.07,58.06,1.8,7.62,2.23-1.28,18.15,7.85,19.86l135.81.31c14.02,5.2-3.9,23.95,17.88,19.84,8.83-1.66-.18-18.34,11.44-20,16.84-2.39,36.05,1.25,52.87,1.22,16.14-.02,34.26-2.04,50.44-.11,3.24.39,6.15,1.41,7.85,4.42-4.28,8.76-1,18.99-14.17,19.29-9.74.22-20.32-.8-30.28.25-9.75,1.02-7.58,13.62-4.46,15.81,2.21,1.55,21.91.17,27.01.72,9.17.99,13.14,2.27,5.69,10.4-7.25,7.91-25.79,18.05-35.04,25.43-6.26,4.99-15.21,10.22-17.19,18.08-2.03,8.01-3.03,17.78-5.28,25.94.35,1.93,7.46,2.55,9.35,2.61,100.31,2.76,201.66-1.02,302.29-.87,179.79.25,359.94,4.07,539.55.22,5.63-.12,21.44,3.63,25.83-1.89,4.61-5.79-5.61-20.37,15.48-10.68,51.89,23.84,129.79,31.89,182.2,4.19,5.32-2.81,19.62-17.72,25.21-12.49,6.27,5.86-.97,22.04,10.77,22.03,156.76.2,313.03-.49,469.02-.15,3.35,0,6.93-1.89,10.58-1.14,1.24-1.18-5.97-30.89-7.56-33.37-3.6-5.61-15.34-11.53-20.84-15.7-2.04-1.54-2.7-4.2-4.51-5.57-6.28-4.76-27.49-15.12-28.8-22.86-.17-1.03-.08-2.06-.06-3.08,5.84.98,11.48-1.03,16.97-1.32,11.47-.6,25.82,1.51,36.67.12,7.04-.9,9.54-10.62,5.64-14.58-3.6-3.66-17.71.64-20-7.81-.99-3.65.04-17.1,5.17-18.29,7.33-1.67,15.85.17,22.93.37,2.01.06,4.23-1.4,6.36-1.32,1.93.07,8.12.83,9.84,1.24,4.13.99.35,17.55,3.32,19.62l26.97.08c18.07-1.24,2.3-15.87,15.6-20.67l134.55-.31c8.79-1.65.64-15.84,7.81-19.91,16.78-1.81,36.33,1.7,52.75-.19,6.41-.73,8.2-4.52,7.98-10.79-.19-5.39-4.92-6.16-9.41-6.72ZM1906.67,269.59c7.15-1.57,17.72-2.03,19.19,6.73,2.28,13.6-4.91,19.43-18.17,16.9-8.44-1.61-10.92-21.44-1.02-23.62ZM1800.73,226.7c2.44-.83,15.74-.69,17.48,1.03,2.91,2.87,2.84,18.68.03,21.5-2.57,2.6-12.75,1.87-16.46,1.21-7.56-1.35-7.26-21.62-1.05-23.74ZM1206.83,16.15c42.08-3.79,89.78,3.01,132.46,0,3.38-1.61,10.39,4.88,11.29,4.87.82,0,5.6-6.07,8.78-4.84,29.82,2.64,65.48-3.43,94.58,0,6.22.73,18.66,13.45,24.01,18.19,4.56,4.04,20.46,16.89,22.86,19.97,1.42,1.82,1.07,4.85,1.9,5.68.57.58,5.5,1.2,7.94,2.78,7.32,4.72,19.04,18.6,26.26,24.75,3.23,2.75,12.89,11.75,12.61,4.5-.55-14.13-5.34-28.88-7.7-42.78-.7-1.36-1.71-2.45-2.79-3.51-5.11-5.04-31.56-18.84-31.59-23.89-.02-2.64,3.06-4.13,5.29-4.82,35.22.71,75.24-3.82,110.12-.89,26.19,2.2-4.66,19.32-9.49,24.61-8.91,9.77-2.88,14.26-1.37,24.02,4,25.98,8.78,52.85,14.28,78.91,1.37,6.49,4.73,24.89,6.98,29.55,3.44,7.11,19.05,14.42,25.87,19.49,10.73,7.97,19.34,16.13-1.03,17.5-9.59.64-24.71-.12-35.23-.05-21.98.14-43.85-.23-65.42-1.52-9.87-9.37-20.99-17.7-31.07-26.85-5.82-5.28-11.69-12.31-17.57-17.7-15.23-13.94-30.16-28.55-46.68-40.87-.49,17.49,3.5,34.84,6.59,52,9.53,8.98,21.64,15.41,32.59,22.8,1.82,2.31,2.19,9.63-.93,10.65-4.84,1.59-20.07-.04-26.33.1-31.61.72-65.24,3.13-96.85.93-4.4-.31-7.08-5.26-10.17-4.73-1.02.18-.92,3.06-2.74,3.69-.96.33-14.91,1.43-17.5,1.55-19.11.91-39.98-.09-59.19-.06-21.16.03-44.83,1.28-65.64,0-9.59-.59-23.07-.93-12.73-12.2,5.14-5.61,23.32-15.49,25.3-21.89,2.77-8.96-.59-23.71.77-33.39l-7.6-96.61c-6.39-6.17-22.6-13.31-27.75-19.17-5.91-6.73-.07-10.16,6.88-10.78ZM949.2,93.7c.15-16.38,1.23-29.37,2.45-45.4.79-10.34-2.65-22.18,4.32-30.94l232.28.48c6.34,5.19,3.64,32.96,4.16,41.8.68,11.59,5.25,31.98,2.26,42.58-2.41,8.52-15.19-1.22-18.73-4.72-10.34-10.21-21.32-20.26-32.77-30.26-1.31-1.14-1.99-3.57-2.8-4.09-2.95-1.92-21.62-2.8-22.39.49l2.77,112.93c6.13,3.92,11.44,9.01,17.12,13.39,4.02,3.1,10.15,5.62,13.67,10,7.3,9.09-5.62,9.85-12.66,10.23-5.37.29-10.79-1.16-15.18-1.05-37.88.91-83.68,3.96-121.05,1.06-3.35-.26-15-2.19-12.59-7.63.34-.78,10.89-9.94,12.63-11.33,2.95-2.35,5.81-4.06,9.4-6.95,5.47-4.42,9.72-4.49,11.12-12.85l1.64-107.85c-.77-2.85-20.4-1.93-22.57-.58-.58.36-.83,3.43-2.13,4.77-8.32,8.57-28.5,27.67-37.76,34.07-3.27,2.26-7.57,6.05-11.17,3.64-5.24-3.51-2.05-7.36-2.01-11.78ZM496.96,174.53c5.73-25.47,10.15-51.17,15.15-76.79,2.78-14.25,5.58-24.13,7.36-39.23.82-6.94,4.45-9.58-1.92-17.21-3.97-4.74-36.86-22.97-10.22-25.15,42.04-3.44,88.66,2.72,131.19-.01,19.5,3.72,5.28,12.03-3.33,18.2-2.96,2.12-5.74,4.24-8.73,6.39-4.42,3.16-11.01,3.65-11.96,10.72-4.3,29.29-11.4,58.55-15.61,87.67-.4,2.76-2.57,20.65.5,20.65h45.37c4.1-1.05,23.4-17.97,28.68-21.79,2.72-1.97,6.2-2.53,8.05-3.86,5.88-4.24,30.36-31.2,29.54-7.72-.2,5.6-2.01,16.21-2.78,22.51-1.42,11.65-5.65,22.32-3.61,34.79,16.39-5.22,19.54-18.5,27.1-31.49,16.36-28.15,33.11-59.81,50.55-87.99,4.54-7.33,12.87-10.62,8.7-21.57-7.02-4.01-39.34-24.24-15.2-26.48,47.04-4.36,100.94,3.28,148.7.18,5.02-.26,6.57,5.71,4.95,9.61-.99,2.4-18.01,13.34-21.46,15.26-1.57.88-5.14,1.38-5.32,1.58-.55.63-.55,15.62-.23,16.72.37,1.27,2.75.75,3.75,1.45,2.01,1.42,16.63,39.26,19.09,45.21,8.2,19.9,15.32,43.55,25.36,62.81,7.53,14.44,15.52,15.25,26.51,24.84,3.99,3.48,9.18,6.89,7.13,12.98-.7,2.09-13.57,3.28-16.83,3.41-23.81.96-49.27.1-73.06-.04-21.42-.12-42.74.33-64.07-1.57-1.68-.51-3.44-2.31-3.42-4.13.07-5.95,14.67-13.99,18.48-17.45,1.2-1.09,9.57-10.11,9.84-10.96.89-2.89-1.65-11.35-3.1-14.11-.96-1.82-6.07-3.26-8.16-3.5-8.44-.93-26.8-.8-35.38-.02-10.56.96-7.33,5.13-11.38,11.3-1.16,1.77-4.16,1.51-4.27,4.39-.25,6.52,3.46,5.1,5.61,7,3.15,2.78,6.09,6.03,9.17,8.81,3.14,2.82,13.35,9.42,12.72,14.23-1.25,9.52-20.88,4.71-26.79,4.84-100.17,2.23-201.33.7-301.42-.19-5.73-.05-14.43,1.74-20.1,1.42-35.81-1.99,21.86-29.09,24.86-35.7ZM291.12,250.95c4.46-6.32,16.35-1.1,18.46-4.22,2.14-5.03-1.2-16.95,4.32-19.6,2.78-1.33,26.29-1.17,28.47.51,4.02,3.09,1.17,17.18-1.41,20.24-4.44,5.26-19.43.88-25.88,3.11-3.49,4.13-1.1,14.89-4.04,18.01-3.49,3.72-15.47,4.09-19.26.38-3.76-3.68-3.36-14.63-.68-18.42ZM211.5,248.22c13.52-2.57,21.05,1.74,17.7,16.43-2.34,10.26-24.61,11.62-24.99-2.31-.18-6.6.57-12.84,7.3-14.12ZM207.08,374.79c-1.43-1.42-2.36-11.9-2.18-14.22.95-12.39,22.62-11.29,24.54-1.19.74,3.91.52,13.3-3.02,15.8-2.7,1.91-16.98,1.95-19.33-.39ZM246.6,416.76c-3.09,2.35-16.3,1.25-19.03-1.37-2.6-2.5-2.8-15.78-.74-18.39,1.8-2.29,18.61-2.55,20.11-1.59,3.05,1.95,3.92,18.11-.34,21.35ZM271.75,313.32c-10.31-1.89-28.17,2.49-37.27.83-2.24-.41-8.11-2.94-8.5-5.31-.27-1.59.35-11.86,1.01-13.66.81-2.23,2.24-4.76,4.64-5.45,5.19-1.5,37.97-.87,45.15-.31,4.32.33,12.81,1.12,14.18,5.98.34,1.2,1.16,13.64.87,14.29-2.12,4.82-15.42,4.96-20.08,3.63ZM315.98,376.53c-6.35,4.24.31,14.76-5.09,18.84-1.04.78-11.03,2.45-12.76,2.43-11.89-.18-13.04-21.3-2.22-23.69,3.53-.78,11.01.64,13.05-.82,3.31-2.36-1.39-18.79,8.42-20.65,7.87.34,15.81,1.16,23.7,1.11,6.62-.04,17.95-4.98,18.01,6.85,0,1.14-2.5,12.73-2.89,13.29-1.4,2-35.18,2.23-40.21,2.64ZM1125.03,543.9l-215.32-.33c-7.32-2.46-6.54-7.47-2.18-12.62,7.29-8.6,23.29-22.86,32.13-31.21,1.88-1.78,6.04-2.26,6.81-4.6,1.12-3.39-6.45-26.42-8.83-29.85-1.77-2.55-3.83-2.98-6.75-3.33-11.71-1.38-49.17-1.6-60.58-.04-1.62.22-2.36.21-3.8,1.24-2.42,1.73-13.45,30.01-12.94,32.08l37.6,35.36c4.63,5.61,5.56,9.86-2.15,12.96h-362.44c-5.46-1.02-6.06-6.32-3.49-10.51,11.32-10.46,21.63-22.11,32.8-32.7,6.56-6.22,7.92-3.17,10.02-15.18,3.28-18.77,6-37.41,7.79-56.44.63-6.72,4.94-11.18-.13-18.39-20.77,1.88-45.94-2.53-66.17,0-13.13,1.64-9.18,7.59-11,16.71-4.49,22.45-9.47,44.44-12.21,67.13,3.89,5.39,7.04,11.29,10.69,16.82,3.59,5.44,16.8,20.3,16.56,25.69-.08,1.93-1.23,4.62-2.88,5.77l-216.7.12c-5.36-8.45,2.85-10.28,7.27-13.86,12.49-10.1,25.78-19.78,38.8-29.56,2.09-1.57,5.05-1.5,6.85-3.23,1.43-1.37,8.83-20.57,9.41-23.34,9.42-45.05,18.19-90.86,27.87-135.86,2.71-12.61,9.42-31.49,10.11-44.1.17-3.09-.51-8.82-2.53-11.14-1.32-1.53-4.24-1.16-6.34-2.8-2.78-2.17-17.3-16.51-19.62-19.43-6.05-7.61-7.76-12.59,3.79-15.17l184.1-.03c12.4,1.75,10.03,6.49,3.74,13.93-9.2,10.87-23.38,19.53-34.07,28.91-1.44,13.53-5.75,26.51-8.02,39.86-1.02,5.98-4.12,22.53-3.88,27.4.08,1.5,1.19,3,1.22,4.56,3.1-2,6.07-.07,9.38.06,11.41.42,54.73,1.64,62.74-1.64,1.65-.68,2.67-1.26,3.21-3.09,1.29-15.59,5.99-31,7.67-46.48.47-4.34,1.97-24.25-.13-26.64-.53-.6-2.95-.51-4.12-1.49-2.43-2.03-13.23-15.98-15.01-19.05-3.31-5.71-6.42-11.9.54-15.6,63.98-.91,128.59-1.45,192.51.27,7.76,6.24,2.44,6.06-.55,9.56-7.92,9.28-19.86,17.44-29.95,24.85-2.07,1.52-4.6.85-7.06,3.02-7.97,7.05-9.94,29.59-11.28,40.36-5.57,44.86-9.24,89.91-13.9,134.71-1.31,12.58-4.56,25.09-3.86,37.87-.22,2.59,2.95,1.7,5.2,3.61,4.09,3.46,9.41,12.05,15.65,12.16,2.55.05,11.36-5.72,13.93-7.64,1.52-1.13,1.99-3.77,3.87-4.95,2.29-1.43,5.57-.75,7.4-2.68,6.67-7.02,19.47-38.74,24.94-49.38,18.95-36.82,36.94-71.95,55.68-109.33,6.25-12.47,14.49-25.25,19.2-37.47,1.09-2.82,3.98-7.42,4.2-9.8.79-8.43-10.33-12.26-15.73-16.91-4.03-3.47-7.48-7.67-11.37-11.3-4.68-4.38-14-6.7-7.69-16.49l224.22.36c6.7,5.75,1.69,5.46-.89,8.71-5.57,7.01-21.45,21.49-28.82,25.98-1.69,1.03-3.53-.42-5.85,2.34-6.95,8.26,2.57,21.44,5.55,29.48,18.73,50.57,40.49,101.27,60.99,150.62,3.2,7.7,9.71,28.29,14.64,33.23,3.43,3.44,10.11,6.86,13.88,10.04,9.39,7.93,18.52,16.34,27.72,23.94,6.52,5.38,5.78,11.79-2.46,13.93ZM1231.2,551.02c-96.16-13.16-171.73-88.44-155.72-190.11,15.4-97.81,151.14-160.84,231.13-94.88,4.21,3.48,7.99,6.83,10.57,11.19,2.7,4.55,10.78-9,12.55-11.09,4.4-5.19,5.46-6.22,9.5-11.94.34-.47,7.78-7.83,8.26-8.16,4.22-2.85,7.76-.33,10.61,3.15l10.46,106.39c-1.17,7.25-.5,16.43-10.52,10.77-1.24-.7-17.45-19.5-18.78-21.53-1.54-2.36-2.51-7.58-3.52-8.46-.83-.72-5.39-1.54-7.68-3.02-12.06-7.79-19.37-18.03-34.58-24.63-23.06-10-35.6-8.59-57.93-.61-1.51.54-4.44-.21-5.2.43-.32.26-.63,3.71-1.62,5.29-4.25,6.8-12.18,14.58-14.81,21.99-9.18,25.91-5.3,78.99,2.67,105.13.42,1.37,12.86,22.76,14.32,24.73,2.13,2.88,15.18,10.83,18.99,12.51,17.59,7.77,45.53,3.42,62.43-4.99,5.91-2.94,21.43-20.17,24.03-26.64,1.15-2.86,1.94-13.98,2.2-17.95.34-5.23-1.24-19.63,1.16-22.77,3.23-4.24,32.4-3.87,37.96-2.44,3.28.84,7.22,3.68,7.95,7.16,1.88,14.82,8.32,29.18,6.97,44.35-7.16,80.46-92.4,105.56-161.43,96.12ZM1835.2,530.6c5.76,5.62,8.97,12.24-1.83,13.31h-204.31c-4.72.33-10.97-3.21-9.82-8.6,1.97-9.26,21.3-34.27,20.07-40.58-.84-4.28-4.36-5.32-6.26-7.7-15.52-19.49-30.85-39.5-47.48-58.04-1.43-1.6-5.07-5.97-6.82-6.02-4.04-.11-15.61,15.76-20.59,18.47-1.84,5.97,4.39,24.04,5.74,31.57.95,5.28.32,18.73,3.48,22.96.97,1.3,3.98,1.55,5.72,3.1,11.48,10.22,21.31,22.51,33.29,32.21,2.76,3.77,3.99,7.69-.06,11.2l-214.89-.43c-5.43-4.08-1.93-9.13,1.43-13.61,5.15-6.87,23.97-23.16,31.37-29.39,1.74-1.46,4.65-1.68,4.92-1.98.61-.67.42-15.61.24-18.13-3.62-50.47-11.54-106.78-17.71-157.35-1.11-9.1-3.29-32.89-6.27-40.05-.54-1.29-3.45-1.18-5.13-2.69-5.33-4.79-7.87-9.78-13.01-14.73-10.41-10.03-17.12-19.92,3.63-20.53,53.16-1.57,106.87,2.35,160.12.49,1.98.15,5.13.2,6.57,1.61,6.86,6.72-10.82,26.83-15.39,32.49-2.89,3.58-6.24,2.29-6.67,9.72,1.78,14.44,2.57,29.31,4.79,43.69.35,2.27,1.94,4.04,2.35,6.47.7,4.14,1.7,26.9,5.78,26.94,1.13-2.32,5.69-2.93,6.61-4.07.9-1.11.57-3.79,1.73-5.23,14.02-17.48,32.08-38.22,47.21-54.81,4.03-4.42,2.91-.48,6.99-8.09.8-1.48,3.17-2.8,3.43-4.14,1.35-6.9-9.06-8.91-12.35-11.2-7.75-5.4-19.33-14.07-26.56-20.06-10.09-8.37-6.26-12.32,5.65-13.31,51.26-4.25,108.3,3.34,160.18,0,25.94,6.41-11.52,23.37-19.92,29-26.77,17.94-41.96,36.05-61.87,61.3-.71.91-2.65,1.21-3.38,2.22-5.9,8.19,4.42,13.87,8.73,19.14,29.87,36.49,62.1,72.64,93.35,108.49,7.93,9.09,15.02,19.05,23.4,26.69,15.54,14.16,39.05,25.57,53.54,39.7ZM1756.02,378.48c.6-2.07,3.69-3.92,5.7-4.37,2.46-.55,7.35-.7,9.78-.23,7.55,1.47,5.86,19.46,1.97,22.05-3.11,2.08-15.88,1.25-18.07-3.56-.58-1.27.18-12.38.61-13.88ZM1838.97,334.8h-40.33c-.86,5.75,2.59,15.4-3.3,18.74-4.3,2.43-32.97,2.4-37-.51-5.57-4.02-3.03-7.57-2.56-12.6.21-2.29-2.36-6.89,4.42-6.89h37.18c.74-5.72-2.29-17.75,3.28-21.28,3.66-2.32,35.99-2.51,38.4.73,3.48,4.69,2.19,14.9,2.43,20.55,12.86-.09,20.75-2.63,20.26,13.24-.19,6.02-1.07,7.52-6.99,8.16-18.96,2.06-15.98-4.23-15.78-20.14Z"/>
  <path class="cls-1" d="M906.21,360.04l13.65,43.68.28,7.88c-6.6,1.73-11.95,0-18.27-.08-3.07-.04-14.22,2.87-15.69-1.92-.82-2.66,12.64-31.59,14.41-37.05,1.1-3.42,1.48-12.12,1.93-12.57.21-.21,2.71.08,3.69.07Z"/>
  <path class="cls-1" d="M1394.78,179.38c-3.57,5.81-9.07,8.11-14.53,12.59-2.99,2.46-7.62,9.87-11.97,9.42-3.16-.33-9.23-7.42-12.11-9.44-6.04-4.23-21.54-12.35-23.62-19.22-1.13-3.75.22-9.39-.28-13.58-3.17-26.74-5.47-52.5-7.56-79.34-.76-9.84-4.49-20.95-2.48-31.47,1.12-5.85,22.56-19.16,27.24-24.51,2-.34,31.63,20.8,33.24,23.21,3.31,4.97,5.33,31.96,6.43,40.17,3.07,22.99,6.98,51.2,8.67,74.45.56,7.63.92,11.28-3.03,17.71Z"/>
  <path class="cls-1" d="M818.06,124.49c-.07-1.38-.13-2.75.3-4.11.95-3,7.1-15.98,8.84-18.87.68-1.13,3.89-5.38,4.71-4.72,1.33,4.94,9.48,24.33,7.03,27.79-6.54,2.93-14.2.46-20.89-.1Z"/>
</svg>