<?xml version="1.0" encoding="UTF-8"?>
<svg id="Capa_1" data-name="Capa 1" xmlns="http://www.w3.org/2000/svg" viewBox="0 0 1532.73 438">
  <defs>
    <style>
      .cls-1 {
        fill: #e8f5e9;
      }
    </style>
  </defs>
  <polygon class="cls-1" points="0 .54 0 0 1532.73 0 1532.73 438 1532.18 438 1532.18 .54 0 .54"/>
  <path class="cls-1" d="M1020.57,152.65l22.16-.04c1.43.47,1.17,6.76.38,7.31-1.56,1.09-10.92-.25-13.37-.33-2.59-.09-9.44.99-10.92-.53-1.68-1.73-.96-5.97,1.75-6.41Z"/>
  <path class="cls-1" d="M430.21,152.54h22.63c2.5,0,3.27,7.08,1.09,7.08h-23.45c-1.53,0-.58-5.93-.27-7.08Z"/>
  <path class="cls-1" d="M310.8,225.54c-.91,2.77,1.28,5.88-2.72,6.81-1.76.41-13.1.26-13.71-.59-.87-1.21-1.05-6.06.99-6.66,1.46-.43,14.83-.18,15.44.44Z"/>
  <path class="cls-1" d="M1154.94,232c-.79-.5-1.07-5.7.33-6.46,1.55-.84,12.69-.91,14.01.04,1.55,1.11,1.56,5.89-.04,6.43-1.13.38-13.69.38-14.3,0Z"/>
  <path class="cls-1" d="M1135.87,304.43c-.85-4.84-1.65-8.07,4.54-7.56,3.54.29,3.98,2.67,3.57,5.78s-5.7,2.77-8.12,1.78Z"/>
  <path class="cls-1" d="M1046.15,161.32c8.12-2.77,10.55,8.18,2.65,8.15-5.95-.03-4.13-7.64-2.65-8.15Z"/>
  <path class="cls-1" d="M329.94,214.04c-.58-.68-.96-7.14,2.37-7.59,4.09-.56,6.02.9,5.73,5.17s-7.21,3.46-8.1,2.42Z"/>
  <path class="cls-1" d="M310.74,252.29c.18,3.23.64,7.18-3.47,7.61-3.18.33-4.63-.34-4.69-3.58-.11-5.89,3.48-4.95,8.16-4.03Z"/>
  <path class="cls-1" d="M291.62,234.35c1.03.66.75,5.93-.18,6.98-.87.99-5.46,1.05-6.19.47-.77-.62-.75-6.9-.02-7.48.38-.3,5.79-.36,6.39.03Z"/>
  <path class="cls-1" d="M311.89,250.6v-7.63l7.12.25c1.44,6.43-.6,8.22-7.12,7.38Z"/>
  <path class="cls-1" d="M422.97,161.37c4.72-1.07,5.63,1.48,5.09,5.63-.42,3.19-6.6,2.35-7.39.8-1.06-2.1-.26-5.85,2.3-6.43Z"/>
  <path class="cls-1" d="M303.23,186.8c-.42-.53-.41-6.16.44-6.79.58-.43,5.46-.43,6.06,0,1.17.84.95,5.52-.02,6.58s-5.94.89-6.49.2Z"/>
  <path class="cls-1" d="M1135.86,222.73c-1.22-1.95.07-6.93,3.44-7.03,4.03-.11,4.85,2.06,4.12,5.75-.44,2.23-6.92,2.3-7.56,1.28Z"/>
  <path class="cls-1" d="M1161.41,252.23c-.55,2.94,1.73,7.79-2.43,7.65-4.44-.16-5.08-.89-4.66-5.2s3.63-1.86,7.09-2.45Z"/>
  <path class="cls-1" d="M1174.36,215.83c3.46-.66,5.68.97,5.54,4.49s-2.74,3.58-5.67,3.02-3.01-6.92.12-7.51Z"/>
  <path class="cls-1" d="M1170.01,249.39c-.56.78-5.04.98-5.9.41-1.59-1.05-.5-4.69-1.05-6.25,2.25-.74,4.77-.86,7.11-.33.76.46.28,5.55-.16,6.16Z"/>
  <path class="cls-1" d="M335.45,161.92c.76-.43,4.91-.3,5.62.41,1.18,1.16,1.15,5.44-.28,6.29-.73.43-3.75.45-4.65.27-2.42-.47-2.33-6.04-.69-6.97Z"/>
  <path class="cls-1" d="M1183.61,179.9c4.45-1.05,5.63.89,5.08,5.08-.28,2.12-2.63,2.4-4.69,2.34-3.43-.1-3.6-6.66-.4-7.42Z"/>
  <path class="cls-1" d="M1127.11,162.4c.51-.6,5.24-.91,6.26-.11,1.12.88,1.12,4.74.27,5.82-.79,1.01-5.21,1.13-6.09.53-.72-.5-.71-5.94-.45-6.24Z"/>
  <path class="cls-1" d="M330.56,303.86c-.97-.97-1.05-4.41.1-5.36,1.22-1.01,5.62-1.6,6.59.04.64,1.09.17,5.11-.8,5.75-.91.6-5.09.38-5.89-.42Z"/>
  <path class="cls-1" d="M1161.41,186.86l-6.52-.03c-.74-4.72-1.29-7.82,4.63-7.07,3.35.42,1.4,4.48,1.88,7.11Z"/>
  <path class="cls-1" d="M318.35,171.14c2.26,6.52-.74,6.95-6.47,6.46-.34-6.52-.26-7.26,6.47-6.46Z"/>
  <path class="cls-1" d="M287.2,179.9c4.24-.94,5.03,1.27,4.54,5.08-.31,2.46-2.41,2.19-4.69,1.9-3.03-.38-2.78-6.33.15-6.98Z"/>
  <path class="cls-1" d="M1170.13,177.6l-6.51-.04c.37-3.29-2-6.11,2.41-6.5,5.82-.51,3.82,1.98,4.1,6.54Z"/>
  <path class="cls-1" d="M1193.78,270.27c-11.43-1.42-25.35.94-37.03-.04-8.29-.7-1.54-6.84-5.83-8.89-1.22-.58-11.03-.69-12.68-.38-1.53.28-2.31,1.52-2.5,2.95-.35,2.68.78,12.91-.5,14.21-.42.43-1.35.67-1.96.77-3.27.5-20.85.56-23.83-.08-4.27-.92-.03-6.79-3.5-8.49-3.7-.96-23.4.13-25.03-1.15-1.49-1.17-1.33-9,1.81-9.2,12.46-1.15,26.77,1.21,38.98-.28,6.18-.75,3.93-1.92,4.25-7.47-1.98.34-3.83-.48-5.7-.56-2.96-.14-10.7,1.29-12.23-1.41-1-1.76-1-14.46,0-16.21,1.14-2.01,7.64-2.14,9.08-.76,1.45,1.4.01,6.15.94,8.05.92,1.88,6.37.33,8.46,1.09-.11,1.21.14,7.23.89,7.66,1.9,1.09,21.5.71,23.81-.14,2.61-.95,1.09-6.98.11-6.98h-15.81c-.38,0-.73-.91-.82-1.36-.82-4.45.72-11.11-.51-15.71-3.99-2.89-15.78,1.9-17.45-3.4-2.84-9,2.49-7.46,9-8.91.67-.94-1.63-7.58,1.58-8.21,1.43-.28,15.85-.12,16.64.27,2.68,1.32.65,7.76,2.52,8.38.87.28,12.33.31,13.56.08,2.47-.47.98-5,1.37-7.09-2.12-.27-6.16.64-7.87-.58-2.18-1.55-.58-6.94-2.17-8.19-1.47-1.16-6.56.17-7.71-1.56-1.41-2.13,1.09-14.66-1.03-16.43-1.11-.92-5.8-.49-6.58,1.15-2.64,5.52,4.75,17.48-6.48,16.28-6.57-.7-2.8-5.71-4.23-8.03-1.04-1.69-8.35,1.44-9.16-3.65-1.94-12.23,5.78-6.6,8.72-8.65.73-.51.69-5.52.48-5.73-.62-.64-7.14-.38-8.51-.91l-42.87.33c-1.7,1.37-1.53,3.77-.83,5.63.77,2.03,8.38.79,10.5,1.49,3.31.67,13.63-2.04,15.61.75,1.31,1.85-.25,5.7,1.13,7.86,2.88.32,8.07-.54,8.6,3.1.86,5.92-.39,8.61-6.78,7.88-6.05-.69-2.71-7.59-5.55-8.62-6.1-2.22-17.5.55-24.16-.92-2.99-1.65-.23-7.49-3.11-8.34l-31.94-.23c-3.97-.87-2.44-5.32-3.19-7.71-.2-.65-.65-.86-1.29-.89l-43.36-.81c-.68-.4-1.83-3.56-2.04-4.5-3.21-13.96-4.53-28.51-8.35-42.37-1.4-4.32,10.04-10.17,10.41-11.54.61-2.27-.92-12.3-3.23-13l-65.21-.24c-3.37.58.71,10.04-5.15,6.23-1.87-1.22-3.8-4.21-6.38-5.61-3.72-2.03-5.13-.63-8.62-.6-99.04.92-198.12-.79-297.16.03-2.28.06-2.38,1.85-2.79,3.74-.52,2.44-1.21,7.03-.56,9.34.65,2.31,9.28,5.65,8.9,9.41-3.59,6.04-6.85,12.3-10.54,18.28-.87,1.41-2.14,2.47-2.87,3.67-.69,1.12-1.15,3.84-1.98,4.56-.58.5-2.15.84-2.46.54-.32-.31.83-5.68-1.46-6.45-1.09-.37-10.35-.26-11.78.04-1,.2-4.87,2.7-5.83,3.43-2.82,2.17-5.51,4.6-8.48,6.78-3.5,2.56-10.75,8.66-14.73,8.75-8.13.19-6.48-4.34-5.66-10.61.77-5.91,2.94-12.16,3.72-18.07.38-2.85-.67-7.79,1.4-10.04,2.85-3.1,12.28-6.57,14.15-9.83,1.02-1.77,2.98-12.85.59-13.57h-76.34c-2.02,0-3.83,10.37-3.44,12.13.71,3.24,10.67,6.94,10.25,12.63-.07.89-.83,1.59-.95,2.34-1.97,12.68-4.34,27.63-7.37,40.03-1.83,7.47-4.7,4.86-10.46,4.76-12.78-.22-25.47,0-38.19.62-1.59.08-5.91-1.24-7.12.46-2.19,3.09,3.83,7.53-5.94,8.23-3.07.22-19.59.4-21.44-.38-2.15-.91-1.46-6.71-3.21-8.38l-50.35.29c-1.81.88-.9,4.53-1.09,6.27h16.09c.62,0,2.38,3.25,2.43,4.12.06.98-.54,2.08-.55,3.22-.02,5.55,2.2,12.65-5.21,12.76-7.64.11-3.83-6.54-5.89-8.16-1.45-1.14-5.9.07-7.28-1.16-1.5-1.33-.8-7.7-1.73-8.35-3.1-.15-23.5-.82-24.51.36-.44.51-.47,5.32,1.16,6.08,3.25,1.51,13.86-.89,15.72,1.19,2.49,2.79-.1,15.83,1.57,16.95.33.22,4.35.74,5.19.81,6.79.5,13.47-2.99,12.3,6.8-.76,6.36-7.38,2.04-9.03,4.59-.72,1.11,0,6.2-1.33,7.38-1.31,1.16-15.91,1.23-17.22.31-2.23-1.57-.58-7.4-2.76-8.14-.83-.28-12.32-.3-13.56-.08-2.2.41-1.6,6.33-.85,6.85,1.66,1.15,7.09-1.24,8.47,1.88,1.77,4-2.78,6.82,4.44,7.55,1.14.12,3.1-1.1,4.07.43,1.14,1.79-.11,8.06,1.12,8.82.25.16,5.69.57,5.94.4,2.86-1.98-1.99-9.88,5.37-9.98,9.4-.12,4.25,7.38,6.74,9.52,1.44,1.24,7.81.15,8.51,1.3.17.28.46,5.96.33,6.52-.54,2.31-4.02,2.68-5.97,2.7-8.27.07-16.9-.72-25.08-.63-4.6.05-6.27,2.15-5.21,6.77.78,3.39,22.3-.67,25.64,1.73,1.45,1.04,1.57,7.75.28,8.98-1.83,1.75-16.69,1.09-20.2,1.11-14.53.09-33.26-1.45-47.41-.02-.82.08-2.88.44-3.29,1.07-.58.88-.21,5.26.42,5.89,1.68,1.68,21.4.03,25.12.78,3.29.97-.55,7.85,3.4,8.59l58.76.13c6.07,2.25-1.69,10.36,7.74,8.58,3.82-.72-.08-7.94,4.95-8.65,7.29-1.04,15.59.54,22.87.53,6.98,0,14.82-.88,21.82-.05,1.4.17,2.66.61,3.39,1.91-1.85,3.79-.43,8.21-6.13,8.34-4.22.1-8.79-.35-13.1.11-4.22.44-3.28,5.89-1.93,6.84.95.67,9.48.07,11.68.31,3.97.43,5.69.98,2.46,4.5-3.14,3.42-11.16,7.81-15.16,11-2.71,2.16-6.58,4.42-7.44,7.82-.88,3.47-1.31,7.69-2.29,11.22.15.83,3.23,1.1,4.05,1.13,43.4,1.2,87.24-.44,130.78-.38,77.78.11,155.72,1.76,233.42.1,2.44-.05,9.27,1.57,11.17-.82,1.99-2.5-2.43-8.81,6.7-4.62,22.45,10.31,56.15,13.79,78.82,1.81,2.3-1.22,8.49-7.66,10.9-5.4,2.71,2.54-.42,9.54,4.66,9.53,67.82.09,135.42-.21,202.9-.06,1.45,0,3-.82,4.58-.49.54-.51-2.58-13.36-3.27-14.44-1.56-2.43-6.64-4.99-9.01-6.79-.88-.67-1.17-1.82-1.95-2.41-2.71-2.06-11.89-6.54-12.46-9.89-.08-.44-.04-.89-.03-1.33,2.53.42,4.97-.45,7.34-.57,4.96-.26,11.17.65,15.86.05,3.04-.39,4.13-4.59,2.44-6.31-1.56-1.58-7.66.27-8.65-3.38-.43-1.58.02-7.4,2.24-7.91,3.17-.72,6.86.07,9.92.16.87.02,1.83-.61,2.75-.57.83.03,3.51.36,4.26.54,1.79.43.15,7.59,1.44,8.49l11.67.03c7.82-.54,1-6.86,6.75-8.94l58.21-.13c3.8-.71.28-6.85,3.38-8.61,7.26-.78,15.72.73,22.82-.08,2.77-.32,3.55-1.96,3.45-4.67-.08-2.33-2.13-2.66-4.07-2.91ZM1100.73,214.76c3.09-.68,7.66-.88,8.3,2.91.99,5.88-2.12,8.41-7.86,7.31-3.65-.7-4.73-9.28-.44-10.22ZM1054.89,196.21c1.06-.36,6.81-.3,7.56.44,1.26,1.24,1.23,8.08.02,9.3-1.11,1.12-5.51.81-7.12.52-3.27-.58-3.14-9.35-.45-10.27ZM797.96,105.12c18.21-1.64,38.84,1.3,57.31,0,1.46-.7,4.49,2.11,4.89,2.11.36,0,2.42-2.63,3.8-2.09,12.9,1.14,28.33-1.49,40.92,0,2.69.32,8.07,5.82,10.39,7.87,1.97,1.75,8.85,7.3,9.89,8.64.62.79.46,2.1.82,2.46.25.25,2.38.52,3.43,1.2,3.17,2.04,8.24,8.05,11.36,10.71,1.4,1.19,5.57,5.08,5.45,1.95-.24-6.11-2.31-12.49-3.33-18.51-.3-.59-.74-1.06-1.21-1.52-2.21-2.18-13.65-8.15-13.67-10.33,0-1.14,1.33-1.79,2.29-2.09,15.24.31,32.55-1.65,47.64-.38,11.33.95-2.02,8.36-4.11,10.65-3.85,4.23-1.24,6.17-.59,10.39,1.73,11.24,3.8,22.86,6.18,34.14.59,2.81,2.04,10.77,3.02,12.78,1.49,3.08,8.24,6.24,11.19,8.43,4.64,3.45,8.37,6.98-.45,7.57-4.15.28-10.69-.05-15.24-.02-9.51.06-18.97-.1-28.3-.66-4.27-4.05-9.08-7.66-13.44-11.61-2.52-2.28-5.06-5.32-7.6-7.66-6.59-6.03-13.05-12.35-20.19-17.68-.21,7.57,1.51,15.07,2.85,22.5,4.12,3.89,9.36,6.67,14.1,9.86.79,1,.95,4.16-.4,4.61-2.09.69-8.68-.02-11.39.04-13.67.31-28.22,1.36-41.9.4-1.9-.13-3.06-2.27-4.4-2.04-.44.08-.4,1.32-1.18,1.6-.42.14-6.45.62-7.57.67-8.27.4-17.29-.04-25.61-.03-9.15.01-19.39.56-28.4,0-4.15-.26-9.98-.4-5.51-5.28,2.22-2.43,10.09-6.7,10.95-9.47,1.2-3.88-.26-10.26.33-14.44l-3.29-41.79c-2.77-2.67-9.78-5.76-12-8.29-2.55-2.91-.03-4.39,2.98-4.66ZM686.51,138.67c.06-7.09.53-12.7,1.06-19.64.34-4.48-1.14-9.59,1.87-13.38l100.49.21c2.74,2.25,1.57,14.26,1.8,18.08.29,5.01,2.27,13.84.98,18.42-1.04,3.68-6.57-.53-8.1-2.04-4.47-4.42-9.22-8.77-14.18-13.09-.57-.49-.86-1.54-1.21-1.77-1.28-.83-9.35-1.21-9.69.21l1.2,48.85c2.65,1.7,4.95,3.9,7.41,5.79,1.74,1.34,4.39,2.43,5.91,4.33,3.16,3.93-2.43,4.26-5.47,4.42-2.32.12-4.67-.5-6.57-.46-16.39.39-36.2,1.71-52.37.46-1.45-.11-6.49-.95-5.45-3.3.15-.34,4.71-4.3,5.46-4.9,1.28-1.02,2.51-1.76,4.07-3.01,2.37-1.91,4.21-1.94,4.81-5.56l.71-46.66c-.33-1.23-8.83-.84-9.76-.25-.25.16-.36,1.48-.92,2.06-3.6,3.71-12.33,11.97-16.33,14.74-1.42.98-3.28,2.62-4.83,1.57-2.27-1.52-.89-3.18-.87-5.1ZM490.86,173.64c2.48-11.02,4.39-22.14,6.55-33.22,1.2-6.17,2.41-10.44,3.19-16.97.35-3,1.93-4.15-.83-7.44-1.72-2.05-15.95-9.94-4.42-10.88,18.19-1.49,38.35,1.18,56.75,0,8.44,1.61,2.28,5.21-1.44,7.87-1.28.92-2.48,1.83-3.78,2.76-1.91,1.37-4.77,1.58-5.18,4.64-1.86,12.67-4.93,25.33-6.75,37.93-.17,1.2-1.11,8.93.22,8.93h19.63c1.77-.45,10.12-7.78,12.41-9.43,1.18-.85,2.68-1.09,3.48-1.67,2.54-1.83,13.13-13.5,12.78-3.34-.08,2.42-.87,7.01-1.2,9.74-.61,5.04-2.44,9.65-1.56,15.05,7.09-2.26,8.46-8,11.72-13.63,7.08-12.18,14.32-25.88,21.87-38.07,1.96-3.17,5.57-4.59,3.76-9.33-3.04-1.74-17.02-10.49-6.58-11.46,20.35-1.89,43.67,1.42,64.33.08,2.17-.11,2.84,2.47,2.14,4.16-.43,1.04-7.79,5.77-9.28,6.6-.68.38-2.22.6-2.3.69-.24.27-.24,6.76-.1,7.23.16.55,1.19.32,1.62.63.87.61,7.2,16.98,8.26,19.56,3.55,8.61,6.63,18.84,10.97,27.17,3.26,6.25,6.71,6.6,11.47,10.75,1.73,1.51,3.97,2.98,3.09,5.61-.3.9-5.87,1.42-7.28,1.48-10.3.41-21.31.04-31.61-.02-9.27-.05-18.49.14-27.72-.68-.73-.22-1.49-1-1.48-1.79.03-2.57,6.35-6.05,8-7.55.52-.47,4.14-4.37,4.26-4.74.39-1.25-.71-4.91-1.34-6.11-.41-.79-2.62-1.41-3.53-1.51-3.65-.4-11.59-.35-15.31,0-4.57.41-3.17,2.22-4.92,4.89-.5.77-1.8.66-1.85,1.9-.11,2.82,1.49,2.21,2.43,3.03,1.36,1.2,2.63,2.61,3.97,3.81,1.36,1.22,5.78,4.07,5.5,6.15-.54,4.12-9.03,2.04-11.59,2.09-43.33.96-87.1.3-130.4-.08-2.48-.02-6.24.75-8.7.62-15.49-.86,9.46-12.58,10.76-15.45ZM401.81,206.7c1.93-2.74,7.07-.48,7.99-1.83.92-2.18-.52-7.33,1.87-8.48,1.2-.58,11.37-.51,12.32.22,1.74,1.34.51,7.43-.61,8.75-1.92,2.27-8.4.38-11.19,1.35-1.51,1.79-.48,6.44-1.75,7.79-1.51,1.61-6.69,1.77-8.33.16-1.63-1.59-1.45-6.33-.29-7.97ZM367.37,205.52c5.85-1.11,9.11.75,7.66,7.11-1.01,4.44-10.65,5.03-10.81-1-.08-2.85.25-5.56,3.16-6.11ZM365.45,260.27c-.62-.61-1.02-5.15-.94-6.15.41-5.36,9.78-4.89,10.61-.52.32,1.69.23,5.75-1.31,6.84-1.17.83-7.35.84-8.36-.17ZM382.55,278.43c-1.34,1.02-7.05.54-8.23-.59-1.13-1.08-1.21-6.83-.32-7.96.78-.99,8.05-1.1,8.7-.69,1.32.84,1.69,7.84-.15,9.23ZM393.43,233.68c-4.46-.82-12.19,1.08-16.12.36-.97-.18-3.51-1.27-3.68-2.3-.11-.69.15-5.13.44-5.91.35-.96.97-2.06,2.01-2.36,2.24-.65,16.42-.38,19.53-.14,1.87.14,5.54.48,6.14,2.59.15.52.5,5.9.38,6.18-.92,2.09-6.67,2.14-8.69,1.57ZM412.56,261.02c-2.75,1.84.13,6.39-2.2,8.15-.45.34-4.77,1.06-5.52,1.05-5.14-.08-5.64-9.21-.96-10.25,1.53-.34,4.76.28,5.64-.35,1.43-1.02-.6-8.13,3.64-8.93,3.4.15,6.84.5,10.25.48,2.86-.02,7.76-2.16,7.79,2.96,0,.49-1.08,5.51-1.25,5.75-.61.86-15.22.97-17.4,1.14ZM762.57,333.43l-93.15-.14c-3.16-1.06-2.83-3.23-.94-5.46,3.15-3.72,10.08-9.89,13.9-13.5.81-.77,2.61-.98,2.95-1.99.49-1.47-2.79-11.43-3.82-12.91-.76-1.1-1.66-1.29-2.92-1.44-5.07-.6-21.27-.69-26.21-.02-.7.1-1.02.09-1.65.54-1.05.75-5.82,12.98-5.6,13.88l16.27,15.3c2.01,2.43,2.4,4.27-.93,5.61h-156.8c-2.36-.44-2.62-2.73-1.51-4.54,4.9-4.53,9.36-9.56,14.19-14.15,2.84-2.69,3.43-1.37,4.33-6.57,1.42-8.12,2.6-16.18,3.37-24.42.27-2.91,2.14-4.84-.06-7.96-8.99.81-19.87-1.09-28.63,0-5.68.71-3.97,3.28-4.76,7.23-1.94,9.71-4.1,19.23-5.28,29.04,1.68,2.33,3.04,4.88,4.62,7.28,1.55,2.35,7.27,8.78,7.17,11.11-.04.83-.53,2-1.25,2.5l-93.75.05c-2.32-3.65,1.23-4.45,3.14-6,5.4-4.37,11.15-8.56,16.79-12.79.9-.68,2.18-.65,2.96-1.4.62-.59,3.82-8.9,4.07-10.1,4.08-19.49,7.87-39.31,12.06-58.78,1.17-5.45,4.08-13.62,4.37-19.08.07-1.34-.22-3.82-1.09-4.82-.57-.66-1.84-.5-2.74-1.21-1.2-.94-7.48-7.14-8.49-8.41-2.62-3.29-3.36-5.45,1.64-6.56h79.65c5.36.74,4.34,2.8,1.62,6.01-3.98,4.7-10.11,8.45-14.74,12.51-.62,5.85-2.49,11.47-3.47,17.24-.44,2.59-1.78,9.75-1.68,11.85.03.65.52,1.3.53,1.97,1.34-.86,2.63-.03,4.06.02,4.94.18,23.68.71,27.14-.71.71-.29,1.16-.55,1.39-1.33.56-6.74,2.59-13.41,3.32-20.11.2-1.88.85-10.49-.06-11.53-.23-.26-1.28-.22-1.78-.65-1.05-.88-5.72-6.91-6.49-8.24-1.43-2.47-2.78-5.15.23-6.75,27.68-.4,55.63-.63,83.28.12,3.36,2.7,1.05,2.62-.24,4.14-3.42,4.01-8.59,7.55-12.96,10.75-.89.66-1.99.37-3.05,1.31-3.45,3.05-4.3,12.8-4.88,17.46-2.41,19.41-4,38.9-6.01,58.28-.57,5.44-1.97,10.86-1.67,16.38-.09,1.12,1.27.74,2.25,1.56,1.77,1.5,4.07,5.21,6.77,5.26,1.1.02,4.91-2.48,6.03-3.3.66-.49.86-1.63,1.68-2.14.99-.62,2.41-.33,3.2-1.16,2.89-3.04,8.42-16.76,10.79-21.36,8.2-15.93,15.98-31.13,24.09-47.3,2.71-5.39,6.27-10.92,8.31-16.21.47-1.22,1.72-3.21,1.82-4.24.34-3.65-4.47-5.3-6.8-7.31-1.74-1.5-3.24-3.32-4.92-4.89-2.03-1.89-6.06-2.9-3.33-7.13l97,.16c2.9,2.49.73,2.36-.38,3.77-2.41,3.03-9.28,9.3-12.47,11.24-.73.45-1.53-.18-2.53,1.01-3.01,3.57,1.11,9.27,2.4,12.75,8.1,21.88,17.52,43.81,26.38,65.16,1.38,3.33,4.2,12.24,6.33,14.38,1.48,1.49,4.37,2.97,6.01,4.35,4.06,3.43,8.01,7.07,11.99,10.36,2.82,2.33,2.5,5.1-1.07,6.03ZM808.51,336.51c-41.6-5.69-74.29-38.26-67.37-82.25,6.66-42.32,65.39-69.58,99.99-41.05,1.82,1.5,3.46,2.96,4.57,4.84,1.17,1.97,4.66-3.89,5.43-4.8,1.9-2.24,2.36-2.69,4.11-5.17.15-.21,3.37-3.39,3.58-3.53,1.83-1.23,3.36-.14,4.59,1.36l4.53,46.03c-.51,3.14-.22,7.11-4.55,4.66-.54-.3-7.55-8.44-8.12-9.31-.67-1.02-1.09-3.28-1.52-3.66-.36-.31-2.33-.67-3.32-1.31-5.22-3.37-8.38-7.8-14.96-10.65-9.98-4.33-15.4-3.72-25.06-.27-.65.23-1.92-.09-2.25.18-.14.11-.27,1.6-.7,2.29-1.84,2.94-5.27,6.31-6.41,9.51-3.97,11.21-2.29,34.17,1.16,45.48.18.59,5.56,9.85,6.19,10.7.92,1.24,6.57,4.69,8.21,5.41,7.61,3.36,19.7,1.48,27.01-2.16,2.56-1.27,9.27-8.72,10.4-11.53.5-1.24.84-6.05.95-7.76.15-2.26-.54-8.49.5-9.85,1.4-1.83,14.02-1.68,16.42-1.06,1.42.37,3.12,1.59,3.44,3.1.81,6.41,3.6,12.62,3.02,19.19-3.1,34.81-39.97,45.67-69.84,41.58ZM1069.81,327.68c2.49,2.43,3.88,5.29-.79,5.76h-88.39c-2.04.14-4.74-1.39-4.25-3.72.85-4.01,9.22-14.83,8.68-17.56-.36-1.85-1.89-2.3-2.71-3.33-6.71-8.43-13.35-17.09-20.54-25.11-.62-.69-2.19-2.58-2.95-2.61-1.75-.05-6.75,6.82-8.91,7.99-.8,2.58,1.9,10.4,2.48,13.66.41,2.28.14,8.1,1.51,9.93.42.56,1.72.67,2.48,1.34,4.97,4.42,9.22,9.74,14.4,13.94,1.19,1.63,1.73,3.33-.02,4.85l-92.96-.19c-2.35-1.76-.84-3.95.62-5.89,2.23-2.97,10.37-10.02,13.57-12.72.75-.63,2.01-.72,2.13-.86.26-.29.18-6.76.1-7.84-1.57-21.83-4.99-46.19-7.66-68.07-.48-3.94-1.42-14.23-2.71-17.33-.23-.56-1.49-.51-2.22-1.16-2.31-2.07-3.4-4.23-5.63-6.37-4.5-4.34-7.4-8.62,1.57-8.88,23-.68,46.23,1.02,69.27.21.86.06,2.22.09,2.84.7,2.97,2.91-4.68,11.61-6.66,14.06-1.25,1.55-2.7.99-2.89,4.2.77,6.25,1.11,12.68,2.07,18.9.15.98.84,1.75,1.02,2.8.3,1.79.73,11.64,2.5,11.65.49-1,2.46-1.27,2.86-1.76.39-.48.25-1.64.75-2.26,6.07-7.56,13.88-16.54,20.42-23.71,1.74-1.91,1.26-.21,3.02-3.5.34-.64,1.37-1.21,1.48-1.79.58-2.98-3.92-3.86-5.34-4.85-3.35-2.34-8.36-6.09-11.49-8.68-4.36-3.62-2.71-5.33,2.45-5.76,22.18-1.84,46.85,1.44,69.3,0,11.22,2.78-4.99,10.11-8.62,12.54-11.58,7.76-18.15,15.6-26.77,26.52-.31.39-1.15.52-1.46.96-2.55,3.54,1.91,6,3.78,8.28,12.92,15.78,26.87,31.43,40.39,46.93,3.43,3.93,6.5,8.24,10.12,11.55,6.72,6.13,16.89,11.06,23.16,17.18ZM1035.55,261.87c.26-.89,1.6-1.7,2.47-1.89,1.06-.24,3.18-.3,4.23-.1,3.27.63,2.53,8.42.85,9.54-1.35.9-6.87.54-7.82-1.54-.25-.55.08-5.35.26-6.01ZM1071.44,242.97h-17.45c-.37,2.49,1.12,6.66-1.43,8.11-1.86,1.05-14.26,1.04-16.01-.22-2.41-1.74-1.31-3.27-1.11-5.45.09-.99-1.02-2.98,1.91-2.98h16.09c.32-2.47-.99-7.68,1.42-9.21,1.58-1,15.57-1.09,16.61.32,1.51,2.03.95,6.45,1.05,8.89,5.56-.04,8.98-1.14,8.76,5.73-.08,2.6-.46,3.25-3.02,3.53-8.2.89-6.91-1.83-6.83-8.71Z"/>
  <path class="cls-1" d="M667.91,253.89l5.91,18.9.12,3.41c-2.85.75-5.17,0-7.9-.03-1.33-.02-6.15,1.24-6.79-.83-.35-1.15,5.47-13.67,6.23-16.03.48-1.48.64-5.24.83-5.44.09-.09,1.17.03,1.6.03Z"/>
  <path class="cls-1" d="M879.28,175.73c-1.55,2.52-3.93,3.51-6.29,5.45-1.3,1.06-3.3,4.27-5.18,4.07-1.37-.14-4-3.21-5.24-4.08-2.61-1.83-9.32-5.34-10.22-8.31-.49-1.62.1-4.06-.12-5.87-1.37-11.57-2.37-22.71-3.27-34.32-.33-4.26-1.94-9.06-1.07-13.61.48-2.53,9.76-8.29,11.78-10.6.87-.15,13.69,9,14.38,10.04,1.43,2.15,2.31,13.82,2.78,17.38,1.33,9.95,3.02,22.15,3.75,32.21.24,3.3.4,4.88-1.31,7.66Z"/>
  <path class="cls-1" d="M629.77,151.99c-.03-.6-.06-1.19.13-1.78.41-1.3,3.07-6.91,3.83-8.16.29-.49,1.68-2.33,2.04-2.04.57,2.14,4.1,10.52,3.04,12.02-2.83,1.27-6.15.2-9.04-.04Z"/>
</svg>