<?xml version="1.0" encoding="UTF-8"?>
<svg id="Capa_1" data-name="Capa 1" xmlns="http://www.w3.org/2000/svg" viewBox="0 0 1028.89 1028.89">
  <defs>
    <style>
      .cls-1 {
        fill: #fff;
      }
    </style>
  </defs>
  <g>
    <polygon class="cls-1" points=".95 0 .95 1027.94 1028.89 1027.94 1028.89 1028.89 0 1028.89 0 0 .95 0"/>
    <path class="cls-1" d="M260.79,603.44h-52.35v-167.52h84.23l35.22,115.18,1.43-115.18h53.3v166.09c0,.1-1.33,1.43-1.43,1.43h-82.81l-1.22-1.64c-10.18-38.79-24.14-76.74-34.47-115.43-.73-.5-1.06,0-.99,1.5l-.92,115.58Z"/>
    <path class="cls-1" d="M507.31,435.92v36.17h-60.91v29.51h56.16v35.22h-56.16v29.51h60.91v37.12h-112.79c-.1,0-1.43-1.33-1.43-1.43v-166.09h114.22Z"/>
    <path class="cls-1" d="M654.84,711.94v-79.95h31.41v99.94h-49.97l-68.05-81.85v80.43c0,.1-1.33,1.43-1.43,1.43h-29.98v-99.94h50.92c23.11,26,43.83,54.22,67.1,79.95Z"/>
    <path class="cls-1" d="M349.31,670.06h-31.41c-.27,0-1.06-3.65-2.06-5.08-14.74-20.95-66.18-18.88-74.37,8.12-12.4,40.9,55.93,51.09,74.37,24.88,1-1.42,1.79-5.08,2.06-5.08h31.41c-.79,24.62-30.89,36.71-51.89,39.01-38.41,4.2-93.91-6.48-88.86-56.5,4.66-46.2,75.54-51.09,109.54-39.34,13.92,4.81,32.02,17.47,31.21,33.99Z"/>
    <path class="cls-1" d="M822.35,631.99v18.56c0,.1-1.33,1.43-1.43,1.43h-78.52v25.7h70.91c.1,0,1.43,1.33,1.43,1.43v17.61h-72.34v35.22h-31.41v-99.94h111.36Z"/>
    <path class="cls-1" d="M208.44,760.49v-8.57h612.48c2.04,0,2.04,8.57,0,8.57H208.44Z"/>
    <path class="cls-1" d="M567.5,363.37c1.28,1.09,8.32.81,8.32,2.6-1.68,2.38-6.7,1.21-8.32,2.6-1.83,1.56-.89,8.95-4.02,10.25-.24-2.22-.36-7.92-1.43-9.53-1.69-2.54-8.51-.81-10-3.78,9.46-1.24,11.57-2.35,11.42-12.39,3.14,1.3,2.2,8.69,4.02,10.25Z"/>
    <path class="cls-1" d="M414.03,309.33c2.03-.48,6.97-.57,8.11-1.89s1.96-9.53,2.84-9.54c1.93,1.89,1.29,7.76,2.6,9.31.9,1.06,6.55,1.79,8.35,2.13,2.02.03,1.99,1.49,0,1.9-2.02.27-6.06.34-7.6,1.44-2.44,1.74-.69,7.77-3.81,9.03-1.53-8.89-1.1-8.94-9.53-10.47-1.55-.43-2.45-.74-.95-1.9Z"/>
    <path class="cls-1" d="M262.7,486.37l-1.9,117.07-.04-115.68,1.01-5.19c1.86-.15.63,2.65.94,3.8Z"/>
    <path class="cls-1" d="M628.19,525.39l-.95.95c-.71-1.06-1.9-2.43-2.86-3.81-1.26-1.34-.73-1.83.95-.95,1.01,1.18,1.84,2.64,2.86,3.81Z"/>
    <path class="cls-1" d="M575.84,466.38c1.53-1.42,1.63-2.55,4.75-1.9.92,2.96-2.48,1.94-3.8,2.85-1.34,1.26-1.83.73-.95-.95Z"/>
    <path class="cls-1" d="M625.33,521.58l-.95.95c-.88-1.27-3.46-2.35-2.85-4.76,1.82.58,2.69,2.52,3.8,3.81Z"/>
    <path class="cls-1" d="M576.79,467.33c-.2.14-2.77,3.59-2.86,3.81l-.95-.95c.8-1.36,1.69-2.72,2.86-3.81l.95.95Z"/>
    <path class="cls-1" d="M561.56,510.16l-.95.95c-.6-1.15-2.47-1.91-1.89-3.81,1.48.26,2.03,1.92,2.85,2.86Z"/>
    <path class="cls-1" d="M548.23,511.11c-.7,2.29-3.64,2.76-2.85.48.24-.7,1.75-1.13,1.9-1.43-.19.55.6.99.95.95Z"/>
    <path class="cls-1" d="M545.37,472.09h-.93c-.32-2.01-1.59-2.44.47-3.8l.46,3.8Z"/>
    <path class="cls-1" d="M562.51,293.15c1.4-.45,1.66-.41.95.95-4.39,2.3-8.98,4.38-13.33,6.66l-1.9-.95c4.75-2.31,9.5-4.44,14.28-6.66Z"/>
    <path class="cls-1" d="M573.93,288.39c-2.94,2.94-7.06,3.92-10.47,5.71l-.95-.95c3.16-1.47,6.32-3.31,9.52-4.76h1.9Z"/>
    <path class="cls-1" d="M578.69,285.54c1.59-.62,1.83-.58.95.95-2.16,1.12-3.17,1.65-5.71,1.9-.62.06-1.28-.04-1.9,0,2.26-1.02,4.36-1.92,6.66-2.86Z"/>
    <path class="cls-1" d="M578.69,285.54c.71-.29,3.53-2.21,3.8-1.9,1.52,1.7-1.79,2.31-2.85,2.85l-.95-.95Z"/>
    <path class="cls-1" d="M589.16,280.79c.01,1.18-3.64,3.03-3.8,2.85-1.35-1.58,2.12-3.01,3.8-2.85Z"/>
    <path class="cls-1" d="M615.81,267.46c-5.31-4.82-73.72,22.74-83.28,28.21-34.22-29.5-89.06-9.47-93.63,36.14-.35,3.5.9,16.5.41,17.49-.82,1.64-21.59,15.81-25.17,18.66-5.8,4.62-41.18,33.61-40.08,38.9.28,1.34,1.94,1.26,3.04,1.24,7.96-.19,23.69-5.6,31.74-8.32,8.26-2.8,24.27-11.26,31.44-12.35,6.15-.93,37.21,1.33,39.44-1.03,1.43-1.52-.32-1.62-1.32-1.99-5.88-2.16-13.46-3.05-19.61-4.67-.93-1,2.1-3.6,2.84-4.29,9.74-9.03,29.36-20.5,41.25-27.28,11.19-6.38,33.14-18.83,44.97-21.67,1.38-.33,1.64-.08,1.3,1.3-1.41,5.7-4.74,12.53-5.46,18.36-.78,6.34,5.34-2.73,6.27-4.21,4.53-7.12,10.72-22.12,15.75-27.56,7.18-7.76,23.15-17.33,32.04-25.54,2.04-1.89,20.21-19.47,18.07-21.42ZM489.98,285.82c5.73-.58,29.74.51,19.57,10.05-6.25,5.86-18.29,6.84-26.23,4.62-19.86-5.56-5.81-13.41,6.66-14.67ZM402.61,388.32l2.85-2.85c.32,1.74-1.05,3.16-2.85,2.85ZM550.14,300.77c-39.52,20.82-80.08,44.9-118.02,68.53-3.46,2.16-7.02,4.46-10.47,6.66-1.92,1.23-3.74,2.58-5.71,3.81-.95.59-1.88,1.29-2.86,1.9-.95.6-1.78,1.26-2.86,1.9-1.2.72-1.91,2.42-3.81,1.89.29-1.44,1.85-2.05,2.86-2.85.89-.7,1.94-1.23,2.86-1.9.92-.67,1.92-1.24,2.86-1.9,1.87-1.33,3.85-2.51,5.71-3.81,3.17-2.2,6.32-4.48,9.52-6.66,37.87-25.84,76.77-48.45,118.02-68.53,1.82-.49,2.45-.17,1.9.95Z"/>
    <path class="cls-1" d="M514.94,665.77c-10.24-31.77-58.59-36.94-86.82-34.44-36.84,3.27-73.44,27.11-57.1,68.9,19.9,50.88,169.68,45.44,143.91-34.46ZM401.39,693.65c-10.17-25.46,10.32-40.1,33.39-42.35,18.6-1.81,47.62,2.95,51.16,25.37,7.03,44.41-73.24,45.31-84.55,16.98Z"/>
  </g>
  <path class="cls-1" d="M812.4,455.87c-7.22-13.75-21.33-17.99-35.73-19.95-33.42-.7-66.9-.8-100.42-.3l-.24,150.49-1.19.2c-7.2-12.83-12.65-26.74-19.94-39.55-3.33-3.39-11.5.34-15.82-2.26-2.55-1.53-9.55-14.76-11.83-18.15,0-.5-.16-1.09-.43-1.66.44.39.92.67,1.38.71,4.41,5.06,9.76,9.4,13.52,15.02.74.43,10.56.43,11.1.08,1.01-.65,5.34-20.45,5.72-23.31,2.37-17.97,1.22-58.69-12.69-71.79-4.54-4.27-16.82-9.48-22.89-9.48h-50.92c-.05,3.32,1.65,6.35,2.49,9.41.43,1.57.96,3.15-1.01,1.01l-48.38-72.6c-1.16-3.33,8.37-7.99,9.77-11.58-10.37-.05-23.84,7.08-31.85,13.83-1.35,1.13-11.06,9.46-4.86,8.48,3.88-.61,8.12-2.8,11.96-3.74l32.37,83.3-1.89,1.4c-1.92-3.74-15.83-28.45-17.34-29.3-1.29-.74-3.92.03-5.52-.2v166.09c0,.1,1.33,1.43,1.43,1.43h51.4c.1,0,1.43-1.33,1.43-1.43v-40.45c0-.19,3.16.16,3.81,0-.76-5.38-1.74-10.87-2.86-16.18-.23-1.11-.65-2.33-.95-3.81-.15-.75-1.71-2.16-.94-3.8,1.15-.32,1.35,1.56,1.89,2.85.63,1.5.59,2.88.95,3.81,5.04,12.97,10.94,25.67,15.36,38.89,3.11.96,14.01-.89,15.9.29,1.43.89,7.82,19.5,9.36,19.87h154.07c20.75-1.77,38.17-4.83,46.16-26.17,9.85-26.29,10.71-96.49-2.38-121.43ZM620.29,495.52c.12,1.62-.84,3.61-.77,5.61.2,5.56,3.91,9.22-4.18,9.12-8.8-.11-7.44-5.07-10-11.5-.75-.68-1.44-1.47-2.09-2.31.57,1.16,1.02,2.31,1.14,3.26,1.76,4.77,2.54,15.07,4.29,20.93,1.98,6.64,5.24,12.44,7.13,19.04-1.92.41-2.54-.42-3.85-1.38-1.57-1.15-9.5-9.19-10.32-10.67-1.96-3.54,1.03-5.23.84-8.88-2.27,1.64-3.57,5.37-7.05,4.84-1.05-.16.1-2.41-1.49-1.98-.91,6.29,2.02,11.79,3.81,17.59.01.79-3.4.7-4.13.53-1.57-.37-8.4-16.18-9.19-16.71-1.24-.83-8.53-1.83-11.75-3.48-4.07-2.09-8.15-5.95-11.11-9.35-2.78-2.92-3.09-2.6-.95.95.65,1.25,1.29,2.53,1.91,3.79-2.95-.23-4.03.91-3.82,3.82-2.72-1.25-1.89-7.05-5.7-3.81-.94.4-1.25-.23-.95-1.9-1.79-3.38-1.8-2.12-3.81-1.9l-.95-.95c.66-1.32,1.66-5.16-.43-5.48-2.11-.33-10.9,2.36-13.84,2.63.18-1.32-.47-3.6.15-4.61,1.19-1.94,12.85-3.32,15.06-9.22.71-1.9-1.25-1.35-2.08-1.65-1.66-.61-10.28-2.87-10.25-4.04.39-3.67,12.8-2.9,13.31-2.38.2.2-.65,7.52,1.89,4.76.21-.23.82-3.71,2.45-5.65,5.95-7.09,13.21-3.41,15.71-5.23,1.26-.92.68-3.83,1.34-5.33.62-1.43,1.64-2.48,2.4-3.77,1.34-1.26,1.83-.73.95.95-3.6,8.93,2.41,15.27,9.8,19.23,6.96,3.73,8.16,2.95,14.95.76-.04-.53.14-.85.4-1l-1.36-.9c-.79-.83-2.44-.81-1.9-2.84,5.95-.38,2.18-2.88,4.28-6.68.86-.03,2,5.35,2.47,5.68.39.27,2.06-.68,3.05-.55,6.8.87,13.03,5.86,16.84-.36,1,3.24-1.19,3.67-1.89,4.76,1.49,1.39,4.28,1.28,3.8,3.8l-5.71-.95c.03.8,1.53,2.2,1.63,3.44ZM624.38,522.54c-.03-.68.28-1.01.95-.95-.07.46.06,1.01.31,1.54-.39-.34-.83-.57-1.27-.59ZM679.11,591.07l1.41,5.7c-1.4-.46-3.67-4.74-1.41-5.7ZM681.97,597.73c.31.61,1.58,3.66,1.42,3.79-1.61,1.35-3.87-2.72-1.42-3.79ZM768.14,543.04c-.29,4.97-1.11,15.03-4.28,18.57-1.13,1.26-7.39,4.71-8.61,4.71h-26.17v-92.8c0-.1,1.33-1.43,1.43-1.43h22.84c2.84,0,9.74,3.06,11.36,5.78,1.98,3.33,3.17,13.33,3.44,17.5.88,13.9.82,33.73,0,47.67Z"/>
</svg>