<?xml version="1.0" encoding="UTF-8"?>
<svg id="Capa_1" data-name="Capa 1" xmlns="http://www.w3.org/2000/svg" viewBox="0 0 1532.73 438">
  <defs>
    <style>
      .cls-1 {
        fill: #e8f5e9;
      }
    </style>
  </defs>
  <polygon class="cls-1" points="1532.18 0 1532.73 0 1532.73 438 0 438 0 437.46 1532.18 437.46 1532.18 0"/>
  <path class="cls-1" d="M465.93,146l28.9,94.25,1.64-94.25h43.35v138.37h-69.79l-29.44-98.6v97.79c0,.06-.76.82-.82.82h-42.53c-.06,0-.82-.76-.82-.82v-136.74c0-.06.76-.82.82-.82h68.7Z"/>
  <path class="cls-1" d="M642.32,146v30.51h-49.62v23.43h45.8v29.42h-45.8v24.51h49.62v30.51h-92.97c-.06,0-.82-.76-.82-.82v-136.74c0-.06.76-.82.82-.82h92.97Z"/>
  <polygon class="cls-1" points="1226.56 172.69 1279.2 236.15 1280.81 237.52 1281.36 172.69 1306.99 172.69 1306.99 254.41 1265.82 254.41 1210.48 187.4 1210.48 254.41 1184.85 254.41 1184.85 172.69 1226.56 172.69"/>
  <path class="cls-1" d="M912.77,273.48h504.09c.06,0,.82.76.82.82v9.26c0,.06-.76.82-.82.82h-503.28c-.06,0-.82-.76-.82-.82v-10.08Z"/>
  <path class="cls-1" d="M1033.27,204.29h-26.72c-.14,0,.06-1.87-.25-2.74-1.19-3.39-7.6-7.79-10.83-9.34-15.14-7.26-46.41-4.27-50.92,15.24-8.32,36.04,52.29,38.59,61.58,17.39.39-.89.29-2.57.42-2.57h26.72c-.76,12.67-11.33,21.78-22.16,26.62-27.63,12.34-89.76,8.19-93.36-30.77-3.91-42.26,46.33-50.14,78.02-44.71,16.05,2.75,36.3,12.54,37.51,30.89Z"/>
  <path class="cls-1" d="M1352.79,189.58v20.7h58.07c.06,0,.82.76.82.82v14.16c0,.06-.76.82-.82.82h-58.07v28.33h-25.35c-.06,0-.82-.76-.82-.82v-80.08c0-.06.76-.82.82-.82h89.42c.06,0,.82.76.82.82v15.25c0,.06-.76.82-.82.82h-64.07Z"/>
  <path class="cls-1" d="M913.58,146h503.28c1.2,0,1.2,5.99,0,5.99h-503.28c-1.2,0-1.2-5.99,0-5.99Z"/>
  <path class="cls-1" d="M247.43,249.13c4.67-.14,9.76.33,14.39,1.1,5.72.95,14.03,2.86,3.18,5.55-9.38,2.32-20.81,2.42-30.2.2-1.08-.26-7.99-1.72-5.78-3.45s15.08-3.3,18.41-3.4Z"/>
  <path class="cls-1" d="M293.89,258.22c.32.37,1.32,8.4,1.73,9.72.35.53,8.05,1.69,9.52,2.21.57.2,1.61.33.76,1.14-.63.6-9.8,1.55-10.27,2.27-.29,2.69-.96,5.34-1.56,7.97-.13.57.1,2.29-.97,1.74-1.4-.72-1.45-8.3-2.58-9.67-.57-.69-7.84-1.66-9.48-2.25-.55-.2-1.68-.37-.76-1.15.54-.46,8.72-1.16,9.82-1.9s1.75-7.55,2.59-9.4c.25-.55.54-1.47,1.22-.69Z"/>
  <path class="cls-1" d="M218.65,159.08c-1.51,2.8-8.76,1.86-10.38,3.52-.9.93-1.69,8.29-2.17,10.09-.82.08-.87-1.33-1.04-1.95-.77-2.7-1.16-5.57-1.77-8.31-1.58-.86-9.6-1.62-10.26-2.28-.89-.9.19-.92.79-1.1,1.66-.49,8.83-1.57,9.44-2.29.95-1.13,1.26-8.32,2.31-10.22l2.94,10.4,10.14,2.13Z"/>
  <path class="cls-1" d="M754.08,243.75c-.11-.98,1.16-1.03,1.95-1.83,15.16-15.48,13.56-61.1,5.26-79.94-5.64-12.79-18.69-15.29-31.46-15.97-25.23-1.34-51.56,1.01-76.9-.03-.63-.05-1.7.25-1.88.84v136.74c0,.06.76.82.82.82h43.35v-34.32h15.54l13.63,34.32h46.62l-16.92-40.63ZM721.3,215.92c-.91,1.52-4.59,3.62-6.19,3.62h-19.08c-.06,0-.82-.76-.82-.82v-41.4c0-.15.64-.54.82-.82h19.63c.56,0,4.08,1.84,4.65,2.44.8.85,1.8,3.23,2.14,4.4,1.73,6.12,2.05,27.26-1.14,32.57Z"/>
  <path class="cls-1" d="M890.88,165.96c-7.15-16.58-21.91-18.89-38.34-19.98l-75,.02v138.37l76.09.02c13.52-1.06,27.58-3.05,35.04-15.65,11.98-20.23,11.47-81.29,2.21-102.78ZM852.18,241.54c-.61,4.03-1.4,8.43-5.35,10.45-1.12.57-5.8,1.87-6.85,1.87h-18.27v-77.36h19.36c2.6,0,7.45,2.4,8.91,4.72,2.48,3.95,3.17,16.63,3.38,21.68.48,11.55.53,27.32-1.18,38.64Z"/>
  <path class="cls-1" d="M372.7,210.27c-22.58-7.68-48.85-9.16-72.45-12.05l-.63-.46c-9.69-28.79-42.19-43.46-70.43-31.71-13.73,5.72-25.03,18.08-29.69,32.17-18.97,1.79-38.12,3.79-56.74,7.87-5.1,1.12-19.72,4.32-23.32,7.21-2.63,2.11-.11,3.06,1.88,4.07,8.39,4.23,23.94,6.87,33.44,8.54,7.89,1.39,19.18,1.75,26.29,3.69,7.33,1.99,21.3,13.44,29.4,16.93.91.39,4.65,1.95,4.93-.02l-14.72-15.53c32.28-4.67,65.86-4.57,98.14,0l-.81,1.64c-1.57,1.84-14.42,12.89-14.44,13.89-.02.85,2.74,1.04,3.5.78l31.49-17.58c15.38-2.22,31-3.97,46.05-7.92,3.05-.8,14.26-3.93,16.01-5.79,2.45-2.6-6-5.09-7.89-5.73ZM257.25,167.36c4.62-.35,12.91,2.79,17.03,5.06,4.53,2.49,18.53,13.64,6.66,15.39-8.49,1.25-18.75-3.38-24.11-9.95-2.9-3.56-7.04-9.94.42-10.5ZM336.7,211.92c-2.11.09-4.46.1-6.57.02-53.04-1.95-104.46-2.04-157.55-.56-1.04.03-11.73,1.31-11.73.27,10.78-.98,21.63-2.29,32.45-2.99,30.82-1.99,61.83-1.96,92.71-1.12l52.59,3.84c.13.95-1.24.51-1.9.54Z"/>
  <path class="cls-1" d="M1168.78,203.73c-6.33-27.85-46.12-33.07-69.65-31.42-29.85,2.1-62.66,20.42-49.23,55.4,16.01,41.66,133.11,38.69,118.88-23.98ZM1074.19,220.88c-6.72-21.75,13.74-31.57,32.03-32.22,13.69-.49,33.15,3.53,36.93,18.9,9.22,37.54-60.72,39.97-68.95,13.33Z"/>
</svg>