<?xml version="1.0" encoding="UTF-8"?>
<svg id="Capa_1" data-name="Capa 1" xmlns="http://www.w3.org/2000/svg" viewBox="0 0 1267.89 329.28">
  <defs>
    <style>
      .cls-1 {
        fill: #fff;
      }
    </style>
  </defs>
  <path class="cls-1" d="M55.68,7.2c-.35,32.77,21.55,64.11,52.31,74.88V7.68h55.67v74.4c26.78-9.58,47.42-34.9,51.28-63.19.53-3.89.45-7.82,1.03-11.69h55.19c1.31,56.84-37.52,109.5-90.44,128.18l-12.25,3.82h102.7v55.68h-101.74l12.95,4.09c52.09,19.12,90.03,71.21,88.79,127.43h-55.67c.45-33.02-21.07-63.58-51.83-74.88v74.88h-55.67v-74.88c-30.81,11.13-52.53,41.87-52.31,74.88H.02c-.72-52.74,32.02-101.64,79.34-123.44l22.88-8.08H.02v-55.68l103.18.24c-4.13-1.65-8.53-2.56-12.73-4.07C37.53,116.32-.87,64.17.02,7.2h55.67Z"/>
  <polygon class="cls-1" points="1033.7 4.8 1206.47 217.67 1209.34 220.32 1209.34 4.8 1267.89 4.8 1267.89 324 1219.18 324 1043.3 108.48 1043.3 324 984.27 324 984.27 4.8 1033.7 4.8"/>
  <path class="cls-1" d="M452.55,4.8l-.02,185.06c2.33,57.01,29.39,89.9,89.03,86.62,48.96-2.7,70.56-36.77,72.73-82.78l-.02-188.9h58.55l.02,188.9c-1.8,48.28-18.99,93.43-62.88,117.59-29.49,16.24-67.83,19.79-100.97,16.01-71.98-8.21-112.35-58.21-115.49-129.28l.02-193.22h59.03Z"/>
  <polygon class="cls-1" points="962.68 4.8 962.68 54.72 857.1 54.72 857.1 324 797.59 324 797.59 54.72 692.02 54.72 692.02 4.8 962.68 4.8"/>
  <rect class="cls-1" x="338.82" width="5.28" height="329.28"/>
</svg>