<?xml version="1.0" encoding="UTF-8"?>
<svg id="Capa_1" data-name="Capa 1" xmlns="http://www.w3.org/2000/svg" viewBox="0 0 1846.09 743.82">
  <defs>
    <style>
      .cls-1 {
        fill: #e8f5e9;
      }
    </style>
  </defs>
  <rect class="cls-1" x="1845.16" width=".93" height="743.82"/>
  <path class="cls-1" d="M702.51,445.4c-.16.53-2.16,1.51-2.59,2.97-.96,3.24-1.24,8.97-2.46,12.36-2.06,5.71-13.8,22.75-18.46,26.44-1.13.89-2.26,1.78-3.44,2.62-9.9,7.06-24.79,12.43-35.78,15.29-7.88,2.06-37.01,1.81-45.29.22-19.43-3.72-39.34-12.04-51.63-28.93-.63-.87-7.53-12.8-7.74-13.57-.51-1.82.17-3.71-.16-5.19-.23-1.01-2.4-.63-2.83-2.92-.79-4.25,1.29-6.68-2.54-10.39l-.03-152.48c.24-.83.89-1.67,1.66-2.04,1.52-.74,30.83-1,33.8-.46s3.06,3.51,3.28,5.98c3.81,42.59-2.57,91.03-.08,134.4,2.4,41.86,38.34,49.22,73.43,39.32.81-.23,11.83-9.36,12.76-10.61.21-.29,3.45-5.57,3.6-5.9,3.95-8.46,5.3-18.94,5.66-28.37,1.7-43.95-1.76-89.01.43-132.95.2-.44,1.68-1.87,1.84-1.87h35.19c.1,0,1.39,1.29,1.39,1.39v154.69Z"/>
  <path class="cls-1" d="M927.52,502.37c-.43-1.7-.83-3.27-.97-5.05-3.77-47.88,2.88-100.73.09-149.13,3.9-4.24,1.64-10.35,2.87-13.83.4-1.14,2.06-1.21,2.36-1.76,1.26-2.29,2.5-7.13,3.92-9.52,8.32-14,20.17-24.85,35.02-30.91,5.59-2.28,9.93-1.67,14.39-2.83.96-.25.88-2.22,2.14-2.66,2.43-.85,49.09-.71,51.56.05,3.96,1.22,9.39,3.49,13.39,5.16,18.24,7.65,34.21,18.59,42.37,39.1,1.83,4.61,1.45,9.6,2.49,13.26.37,1.31,2.6,2.71,2.6,2.96v153.77c0,.1-1.29,1.39-1.39,1.39h-35.19c-.16,0-1.63-1.43-1.84-1.87-2.02-42.86,1.04-86.32-.43-129.25-.14-3.97-.36-16.59-.99-19.23-.16-.68-1.59-.54-1.79-1.3-2.66-9.98-4.24-17.76-14.02-23.78-7.46-4.59-10.59-3.25-17.78-5.38-1.31-.39-1.89-2.19-3.9-2.58-2.89-.57-15.32-.45-18.55-.08-1.79.21-1.18,2.14-3.83,2.63-8.99,1.66-9.91-.75-18.33,5.79-4.47,3.48-10.27,10.48-12.32,15.47-2.44,5.93-3.62,14.27-3.95,21.06-2.16,43.83,1.66,89.46.09,133.48.58,1.36-2.72,5.05-3.29,5.05h-34.72Z"/>
  <path class="cls-1" d="M251.75,159.11c1.57.98,8.59-.27,11.34.25,58.97,11.2,113.63,48.13,146.81,100.66,14.13,22.37,28.06,58.76,31.37,85.13.74,5.88-.68,12.85.03,18.48.22,1.77,1.77.88,2,2.65,2.68,21.26-5.65,64.9-12.25,85.18-.41,1.27-2.44,1.17-2.67,2.14-.34,1.46.35,3.37-.17,5.19-.29,1.05-3.01,4.29-3.88,6.31-19.71,45.98-57.09,87.49-104.38,110.53-7.61,3.71-12.81,5.88-21.48,7.91-.97.23-.88,2.26-2.14,2.67-1.61.53-3.73-.26-5.35.27-1.25.41-1.17,2.42-2.14,2.67-1.94.5-4.97-.44-7.22,0-1.8.34-5.72,2.01-9.22,2.81-4.85,1.11-12.44,3.73-16.75,4.55-5.07.96-12.55-.92-17.54.05-2.15.42-2.47,2.41-5.52,2.82-3.57.48-19.95.57-23.19-.07-2.05-.4-2.6-2.35-4.66-2.75-4.42-.87-10.82.58-15.65-.09-6.4-.9-18.5-3.3-24.73-4.94-1.74-.46-1.63-2.21-2.39-2.37-2.39-.51-5.82.63-8.05-.16-1.27-.45-1.19-2.44-2.14-2.67-1.52-.36-3.6.46-5.28-.11-.43-.14-5.44-3.9-6.81-4.44-49.02-19.53-87.99-52.53-112.83-100.06C7.82,445.17-4.37,395.19,1.47,350.54c.22-1.69,1.63-1.15,1.88-1.99,1.9-6.39,1.26-17.14,3-24.63,3.91-16.82,11.85-33.29,18.85-47.79,14.64-30.31,40.4-60.02,69.24-80.36,6.41-4.52,12.9-7.81,19.42-11.43,14.51-8.06,36.48-18.77,53.93-22.19,6.9-1.35,16.58-1.56,23.09-2.84,2.15-.42,2.48-2.41,5.52-2.82,5.18-.7,51.96-.93,54.24.54.59.38.68,1.81,1.11,2.07ZM347.48,209.72c-43-32.63-108.18-49.6-161.2-39.27-2,.39-2.55,2.16-3.9,2.58-4.18,1.29-14.65,1.82-19.93,3.22-68.41,18.04-128.76,84.6-143.98,151.46-8.98,39.42-7.84,82.91,6.6,119.78,13.94,35.59,32.63,65.47,63.05,90.69,77.89,64.58,197.96,64.79,273.65-5.99,20.25-18.94,37.92-42.13,49.42-66.36.82-1.74,5.73-11.92,5.93-12.6.51-1.82-.18-3.72.16-5.19.23-.97,2.26-.87,2.67-2.14,12.64-38.83,13.39-80.1,4.72-120.26-.54-2.5-1.53-8.93-1.94-10.13s-2.44-1.18-2.67-2.14c-2.53-10.77-5.55-18.35-10.74-28.89-13.54-27.5-36.73-55.72-61.84-74.77Z"/>
  <path class="cls-1" d="M835.85,323.59v176.46c0,.31-1.23,1.41-.93,2.32h-34.72c-.26,0-4.17-2.98-4.17-3.24v-175.53h-63.43c-.1,0-1.39-1.29-1.39-1.39v-30.57c0-.16,2.15-2.32,2.31-2.32h167.6c.1,0,1.39,1.29,1.39,1.39v31.49c0,.1-1.29,1.39-1.39,1.39h-65.28Z"/>
  <path class="cls-1" d="M243.03,191.03c.46.29.48,2,1.69,2.42,3.09,1.08,10.65-.39,14.66.19,7.4,1.07,24.68,7.21,32.21,10.21,50.21,19.96,88.91,62.99,107.92,114.53,2.34,6.35,1.85,10.6,2.99,16.46.39,2,2.16,2.55,2.58,3.91.79,2.57-.18,6.17.23,9.03,2.7,18.49,3.54,50.33-.06,68.58-.4,2.01-2.19,2.58-2.58,3.9-1.17,3.92-1.63,9.77-3.2,14.4-11.22,33.29-33.75,67.37-62.4,89.45-15.73,12.12-37.83,24.7-56.6,30.5-1.74.54-3.7-.1-5.2.39-1.26.41-1.17,2.41-2.14,2.66-1.94.5-4.97-.44-7.22,0-2.04.39-2.59,2.35-4.65,2.75-3.02.59-7.03-.53-10.13.05-2.24.42-3.24,2.36-6.5,2.76-8.2,1-39.45,1.21-47.2-.07-2.37-.39-3.34-2.09-4.9-2.51-2.91-.79-6.26.3-9.03-.23-2-.39-2.57-2.18-3.9-2.58-4.06-1.23-12.1-1.65-17.15-3.22-53.32-16.63-102.75-67.62-119-121.79-1.73-5.78-4.82-16.36-5.75-22.04-.46-2.84.53-6.51-.07-9.04-.18-.75-1.68-.25-1.9-1.96-1.03-7.86-1.03-35.8,0-43.66.22-1.71,1.73-1.21,1.9-1.96.77-3.28-.65-8.41.03-11.86s4.16-11.73,5.33-15.97c11.63-42,33.49-72.84,67.88-98.85,4.4-3.33,9.76-7.9,15.01-10.94,17.08-9.9,36.07-16.93,55.47-21.35,5.45-1.24,14.08-.75,16.84-1.71,1.26-.44,1.18-2.41,2.15-2.66,2.42-.63,40.87-.89,42.68.24ZM266.57,209.13c-5.44-3.39-2.72-1.54-8.94-2.61-12.8-2.21-32.31-6.47-45.47-4.63-6.95.97-14.16.98-20.27,1.96-2.32.37-3.88,2.13-5.82,2.52-2.61.53-6-.36-8.02.34-1.25.43-1.17,2.44-2.14,2.67-42.68,10.03-76.64,37.02-100.91,72.52-2.76,4.04-6,8.83-8.09,12.73-6.06,11.32-11.44,26.56-15.18,38.58-.83,2.68.33,6.31-.2,9.06-.4,2.05-2.35,2.6-2.75,4.66-.77,3.94.53,9.51-.09,13.8-.43,2.97-2.37,4.72-2.74,7.45-.5,3.7-.51,15.86-.01,19.55.41,3.04,2.4,3.37,2.82,5.52.87,4.5-.86,11.23.03,15.72.39,2.01,2.19,2.58,2.58,3.9,3.79,12.7,4.91,23.34,10.6,35.67,7.4,16.02,18.41,33.45,30.7,46.7,27.07,29.16,66.38,50.37,104.8,55.86,39.13,5.59,79.8-4.25,110.82-22.47,37.77-22.2,66.38-56.7,80.07-97.66,3.57-10.69,7.44-27.7,8.64-39.53,1.82-18.03-1.16-40.41-5.68-57.41-13.34-50.18-47.76-93.05-95.22-115.02-6.23-2.88-12.93-4.84-19.34-7.49-1.09-.45-.99-1.96-1.76-2.13-2.26-.5-6.91.71-8.42-.23Z"/>
  <path class="cls-1" d="M204.33,326.06v-51.41c0-.16,2.15-2.32,2.31-2.32h27.78c.1,0,1.39,1.29,1.39,1.39v52.34c2.52-1.18,6.54-1.3,8.67-2.01,1.33-.44,1.13-2.39,2.2-2.64,6.74-1.62,7.39-4.48,11.96-9.14,10.07-10.24,12.53-13.36,15.17-27.4.35-1.85,1.93-2.8,2.33-4.15.58-1.93-.06-8.39,1.8-8.39h33.34c.1,0,1.39,1.29,1.39,1.39v13.89c0,.17-1.54,1.37-1.82,2.81-3.94,19.86-12.45,37.52-27.88,50.86-9.58,8.28-18.85,14.89-31.9,19.06-1.38.44-2.78-1.08-2.29,1.84h62.5c.1,0,1.39,1.29,1.39,1.39v30.57c0,.1-1.29,1.39-1.39,1.39h-56.48c-.57,0-1.78,1.91-1.39,2.77,2.95-.81,3.93,1.37,5.65,2.23,26.92,13.34,39.15,27.62,48.19,55.57.4,1.25,2.29,1.08,2.64,2.17.29.92,2.78,11.21,2.78,11.83v13.89c0,.4-1.45,1.56-2.22,1.35-5.66-2.76-29.77.98-33.02-1.29-1.74-1.21-.32-5.35-1-7.36-.42-1.25-2.41-1.17-2.66-2.14-.56-2.16.53-5.6,0-7.97-.09-.4-2.74-5.88-3.31-7.05-4.75-9.86-13.6-18.86-23.24-23.99-1.22-.65-11.4-6.06-11.4-2.49v49.09c0,.31-1.23,1.41-.93,2.32h-29.63c.3-.91-.93-2.01-.93-2.32v-49.09c0-4.02-12.09,3.1-13.61,3.98-3.84,2.24-10.73,7.29-13.3,10.8-2.13,2.92-9.98,16.81-10.87,19.68s.52,7.22-.17,9.82c-.25.93-1.88.9-2.3,1.57-.76,1.23-.35,5.56-1.89,5.56h-30.56c-.1,0-1.39-1.29-1.39-1.39v-25.47c0-.12,1.8-.02,2.33-.88.89-1.45.12-3.4.68-4.91,1.05-2.79,3.69-7.68,5.18-10.57,7.74-15.05,28.28-37.52,45.25-42.74,1.56-.48,3.3-.13,4.91-.19v-2.78h-57.88c-.23,0-3.24-3.01-3.24-3.24v-28.72c0-.1,1.29-1.39,1.39-1.39h62.5l-24.97-13.46c-16.46-14.55-28.54-27.37-33.34-48.88-.22-.99-2.8-1.46-2.8-2.04v-24.08c0-.1,1.29-1.39,1.39-1.39h30.56c.45,0,3.82,7.6,3.95,8.09.71,2.67-.11,5.55.65,8.61.85,3.42,5.36,12.68,7.52,15.64,7.16,9.81,18.59,17.49,30.02,21.38Z"/>
</svg>