<?xml version="1.0" encoding="UTF-8"?>
<svg id="Capa_1" data-name="Capa 1" xmlns="http://www.w3.org/2000/svg" viewBox="0 0 1215 1280">
  <defs>
    <style>
      .cls-1 {
        fill: #e8f5e9;
      }
    </style>
  </defs>
  <polygon class="cls-1" points="0 1 0 0 1215 0 1215 1280 1214 1280 1214.01 .99 0 1"/>
  <path class="cls-1" d="M511.23,1074.51c-41.23-40.19-87.96-91.12-118.38-139.92-6.2-9.94-11.6-21.05-15.63-31.33-4.34-11.07-14.28-18.62-19.71-29.25-7.04-13.79-7.53-33.34-11.26-48.69-2.88-11.84-8.72-23.43-9.52-35.45-1.18-17.76,4.43-34,5.98-50.96.7-7.69-.53-16.24-.03-24.01,1.09-17.03,9.04-37.57,13.79-54.15,15.87-55.4,41.49-111.15,70.98-160.84,2.28-3.84,10.46-16.8,11.02-20.04.31-1.8,0-2.39-.6-3.96-3.63-9.54-13.37-20.36-17.27-30.71-2.03-5.4-5.83-18.72-6.7-24.27-2.06-13.17.07-49.27,3.05-62.42,2.91-12.88,9.63-20.5,13.03-30.94,8.75-26.9,21.52-45.07,38.22-67.69,43.81-59.33,81.71-67.76,152.78-73.04,4.13-.31,9.91-2.11,13.86-1.93s7.33,3.11,10.36,3.72c18.77,3.79,35.23,4.88,53.28,13.67,19.94,9.71,33.97,25.34,50.44,39.49,2.78,2.39,6.89,3.99,9.51,6.48,2.75,2.61,28.94,44.03,30.67,48.27,1.62,3.97,1.58,8.14,2.77,11.22,10.33,26.81,20.03,45.89,17.53,76.49-.5,6.12-3.97,11.58-4.77,17.2-1.87,13.08-1.94,23.29-6.53,36.44-4.54,13.02-14.34,23.04-20.09,34.87-1.25,2.57-4.47,9.93-4.48,12.36-.01,2.29,8.28,15.96,10.04,19.81,6.24,13.66,12.56,27.8,18.52,41.43,10.07,23.03,12.32,48.72,16.15,73.77,11.79,77.08,11.07,148.95-12.61,223.97-4.83,15.29-11.95,38.4-18.47,52.48-2.57,5.56-6.94,10.6-9.63,16.35-2.84,6.08-3.91,13.07-6.4,18.58-1.66,3.69-5.38,7.44-7.47,11.52-4.62,9.04-7.82,20.49-12.08,29.89-14.82,32.7-39.89,71.6-61.7,100.17-4.18,5.47-10.95,10.18-15.4,15.58-5.27,6.38-10.38,17.62-16.01,22.96-6.03,5.72-6.84,6.94-12.07,12.91-.88,1.01-14.3,12.34-15.19,12.79-6.59,3.32-13.59,4.54-20.69,2.27-7.24-2.31-27.12-13.12-34.68-17.28-24.79-13.67-44.62-28.33-64.6-47.81ZM662.11,372.06c-11.65-13.86-19.49-25.18-35.54-34.9-5.75-3.48-5.61-6.65-14.31-3.15-8.47,3.41-16.95,14.6-23.82,20.15-9.31,7.51-27.39,14.78-38.23,21.73-24.71,15.83-40.54,35.15-60.11,55.8-9.73,10.27-23.06,21.51-31.32,32.63-3.81,5.13-9.41,12.76-7.72,19.33,5.04,19.58,18.86,30.64,29.95,46.03,6.41,8.91,2.2,6.77-.64,14.18-1.18,3.07-1.06,6.61-2.3,9.69-10.99,27.16-26.26,50.84-37.19,77.71-3.44,8.46-7.12,24.45-11.82,31.14-18.68,26.6-19.07,77.46-16.28,109.37,2.5,28.66,18.48,94.15,34.02,117.86,2.22,3.39,6.12,6.54,8.65,10.34,7.36,11.05,12.72,24.01,20.75,35.21,27.87,38.85,68.64,64.8,104.8,94.04,5.96,4.82,13.72,13.73,19.56,17.41,2.75,1.73,7.75,2.62,10.52.61,6.25-7.46,12.43-16.98,19.04-23.92,7.7-8.09,14.71-13.28,22.33-22.64,27.05-33.22,42.51-66.8,58.99-105.88,6.88-16.31,14.84-34.72,20.74-51.2,14.89-41.6,9.34-85.03,17.17-127.72.51-2.81,2.56-4.76,2.73-7.07.93-12.21-.84-27.99-.73-40.89.23-28-5.93-56.36-17.76-82.08-8.51-18.52-19.37-31.95-20.22-53.74-.3-7.71,3.04-10.61,8.01-16.05,6.16-6.73,11.75-11.78,17.99-18.98,3.03-3.5,8.88-5.46,7.63-10.5l-35.57-55.17c-17-19.06-32.8-39.71-49.33-59.37Z"/>
  <path class="cls-1" d="M681.68,525.84c-4.89,4.86-9.74,11.19-15.21,16.25-7.95,7.35-17.2,13.32-24.47,21.49-1.17,2.79-.8,13.73.14,16.8,2.72,8.84,19.15,7.28,26.56,8.42,11.68,1.79,21.26,6.64,34.21,7.77,8.01.7,19.62,16.1,21.27,23.68,2.48,11.36,8.13,49.55,5.78,59.29-.43,1.78-.86,3.85-2.97,3.9-3.18.09-14.39-4.03-19.19-4.84-8.82-1.48-17.98-1.47-27.19-3.78-13.55-3.4-25.7-9.61-40.63-8.39-7.73.63-8.87,6.94-9.48,13.57-1.36,14.84-.17,31.89-1.02,46.95,1.23,11.53,10.78,12.63,18.92,18.05,13.09,8.71,24.91,13.76,37.36,21.59,3.38,2.13,14.81,10.28,17.19,12.78,4.75,4.98,6.09,13.77,5.35,20.41-.3,2.68-2.48,12.11-3.34,14.64s-3.66,4.17-5.05,6.94c-2.86,5.68-4.54,14.68-7.01,20.97-1.17,2.99-5.18,13.54-6.39,15.34-2.92,4.36-13.53,1.37-17.44-.45-19.84-9.28-37.03-27.48-56.03-37.89-2.38-1.31-11.03-5.4-13.29-5.73-5.56-.82-7.81,1.29-11.24,5.28-7.65,8.91-10.79,17.12-16.6,26.37-18.25,29.03-37.24,53.31-52.52,84.37-4.31,8.75-4.97,20.11-17.75,11.11-6.51-4.59-5.81-8.18-9.02-13.96s-8.71-12.51-12.22-18.76c-2.3-4.1-11.49-20.46-12.33-23.64-3.32-12.58,1.69-12.59,6.96-20.08,18.24-25.93,36.74-63.71,57.08-86.81,2.49-2.82,6.6-4.63,8.85-8.13,2.36-3.67,10.02-18.77,10.47-22.51,2.49-20.91,10.1-53.16,4-72.73-4.61-14.81-19.44,2.74-24.94,6.83s-11.29,5.01-16.84,8.14c-7.98,4.51-19.67,17.19-25.68,20.28-2.23,1.15-4.61.76-6.31,1.68-6.48,3.49-12.78,8.96-18.77,13.28-4.73,1.31-7.25-5.81-8.15-9.46-1.74-7.06.96-29.21,2.94-36.8,1.6-6.13,5.61-12.1,7.25-17.73,2.43-8.32.69-17.63,8.02-24.45,2.2-2.05,24.09-14.98,27.73-16.74,3.4-1.64,7.93-2.21,11.78-4.21,9.44-4.89,18.27-14.12,27.17-19.79,9.03-5.75,23.3-7.48,22.82-20.92-.25-7.19-3.07-11.38-8.78-15.28-10.73-7.33-20.38-9.8-28.95-22.01-4.12-5.86-12.42-24.16-13.91-31.07-1.35-6.29,1.49-3.46,3.52-5.47.76-.75.81-2.67,1.75-3.72,3.61-4,4.59-4.57,8.46-9.54,3.15-4.04,9.12-9.19,12.99-12.99,13.99-13.73,27.11-30.95,43.04-42.89,3.93-2.95,14.7-7.73,17.47-10.51,1.82-1.83,1.49-4.16,2.75-5.76.34-.44,8.38-6.28,8.99-6.54,5.68-2.44,11.53,6.98,15.15,10.3,9.71,8.9,21.4,17.29,30.05,26.91,4.25,4.73,7.59,11.83,12.42,16.56,2.86,2.8,6.75,4.69,9.57,7.42,9.1,8.78,12.35,24.27,19.23,34.75,1.56,5.95-6.21,15-10.24,19.26-1.22,1.28-3.41,1.34-4.29,2.21Z"/>
</svg>